<svg viewBox="-840 -469.5 1680 939" width="1680" height="939" style="background-color: rgb(255, 255, 255);" xmlns="http://www.w3.org/2000/svg"><path d="M-78.0012492295567,9.618805371717473L-91.13796580019762,8.624057402698575M-91.13796580019762,-44.1092151483637L-91.13796580019762,8.624057402698575M-91.13796580019762,8.624057402698575L-108.42375774572078,20.144215401026973M-78.0012492295567,-43.11446717934481L-78.0012492295567,9.618805371717473M-78.0012492295567,9.618805371717473L-95.28704117507986,21.138963370045865" style="fill:none;stroke:rgb(0,0,0);stroke-width:1;stroke-linecap:round"></path><path d="M-78.00124922955669,9.618805371717471L-91.13796580019762,8.624057402698575L-91.13796580019762,-44.1092151483637zM-78.00124922955669,-43.11446717934481L-78.00124922955669,9.618805371717471L-91.13796580019762,-44.1092151483637z" style="fill:rgb(238,238,238); fill-opacity: 0.4"></path><path d="M-78.0012492295567,-43.11446717934481L-91.13796580019762,-44.1092151483637M-91.13796580019762,-44.1092151483637L-108.42375774572078,-32.58905715003531M-78.0012492295567,-43.11446717934481L-95.28704117507986,-31.594309181016413" style="fill:none;stroke:rgb(0,0,0);stroke-width:1;stroke-linecap:round"></path><path d="M-108.42375774572075,20.14421540102697L-91.13796580019762,8.624057402698575L-78.00124922955669,9.618805371717471z" style="fill:rgb(238,238,238); fill-opacity: 0.4"></path><path d="M-28.44999780033073,8.193428196800847L-61.29179013064794,5.7065582058218505M-61.29179013064794,-33.34252359641971L-61.29179013064794,5.7065582058218505M-61.29179013064794,5.7065582058218505L-74.09194970814535,14.237255624911025M-85.62562797833672,7.992972843223574L-98.76234454897764,6.998224874204679M-98.76234454897764,-3.720621294398237L-98.76234454897764,6.998224874204679M-98.76234454897764,6.998224874204679L-102.2759467929333,9.339873617936876" style="fill:none;stroke:rgb(0,0,0);stroke-width:1;stroke-linecap:round"></path><path d="M-91.13796580019762,-44.1092151483637L-91.13796580019762,8.624057402698575L-108.42375774572075,-32.58905715003531zM-95.28704117507985,21.138963370045865L-78.00124922955669,9.618805371717471L-78.00124922955669,-43.11446717934481zM-28.449997800330724,8.193428196800847L-61.291790130647925,5.70655820582185L-61.291790130647925,-33.34252359641972z" style="fill:rgb(238,238,238); fill-opacity: 0.4"></path><path d="M-85.62562797833671,7.99297284322357L-98.76234454897762,6.998224874204675L-98.76234454897762,-3.72062129439824z" style="fill:rgb(153,221,255); fill-opacity: 0.4"></path><path d="M-85.62562797833672,-2.7258733253793412L-98.76234454897764,-3.720621294398237M-98.76234454897764,-3.720621294398237L-102.2759467929333,-1.3789725506660397M-28.44999780033073,-30.85565360544071L-61.29179013064794,-33.34252359641971M-61.29179013064794,-33.34252359641971L-74.09194970814535,-24.811826177330534M-85.62562797833672,-2.7258733253793412L-85.62562797833672,7.992972843223574M-85.62562797833672,7.992972843223574L-89.13923022229238,10.334621586955771M-85.62562661903358,-2.725873381281912L-85.62562661903358,7.992972787321002M-85.62562661903358,7.992972787321002L-89.13922878683397,10.33462148029933M-85.62562661903358,7.992972787321002L-68.2385685298442,1.4009612417305792" style="fill:none;stroke:rgb(0,0,0);stroke-width:1;stroke-linecap:round"></path><path d="M-85.62562797833671,-2.725873325379344L-85.62562797833671,7.99297284322357L-98.76234454897762,-3.72062129439824zM-102.27594679293328,9.339873617936872L-98.76234454897762,6.998224874204675L-85.62562797833671,7.99297284322357zM-98.76234454897762,-3.72062129439824L-98.76234454897762,6.998224874204675L-102.27594679293328,-1.378972550666043z" style="fill:rgb(153,221,255); fill-opacity: 0.4"></path><path d="M-28.44999780033073,-30.85565360544071L-28.44999780033073,8.193428196800847M-28.44999780033073,8.193428196800847L-41.250157377828145,16.724125615890024M-85.62562797833672,-2.7258733253793412L-89.13923022229238,-0.38422458164714435M-85.62562661903358,-2.725873381281912L-89.13922878683397,-0.3842246883035839M-85.62562661903358,-2.725873381281912L-68.2385685298442,1.4009612417305792" style="fill:none;stroke:rgb(0,0,0);stroke-width:1;stroke-linecap:round"></path><path d="M-98.76234454897762,6.998224874204675L-102.27594679293328,9.339873617936872L-102.27594679293328,-1.378972550666043z" style="fill:rgb(153,221,255); fill-opacity: 0.4"></path><path d="M-95.28704117507985,-31.594309181016413L-78.00124922955669,-43.11446717934481L-91.13796580019762,-44.1092151483637zM-28.449997800330724,-30.855653605440718L-28.449997800330724,8.193428196800847L-61.291790130647925,-33.34252359641972z" style="fill:rgb(238,238,238); fill-opacity: 0.4"></path><path d="M-85.62562799638549,-2.7258733267460453L-85.62562799638549,7.9929728418568695L-89.13923024034115,10.334621585589067z" style="fill:rgb(255,187,187); fill-opacity: 0.4"></path><path d="M-89.13923022229237,10.334621586955768L-85.62562797833671,7.99297284322357L-85.62562797833671,-2.725873325379344zM-89.13923022229237,-0.3842245816471468L-85.62562797833671,-2.725873325379344L-98.76234454897762,-3.72062129439824z" style="fill:rgb(153,221,255); fill-opacity: 0.4"></path><path d="M-85.62562799638549,7.9929728418568695L-85.62562799638549,-2.7258733267460453L-68.23856991543067,1.400960757435817z" style="fill:rgb(255,187,187); fill-opacity: 0.4"></path><path d="M-89.13923022229237,10.334621586955768L-102.27594679293328,9.339873617936872L-85.62562797833671,7.99297284322357z" style="fill:rgb(153,221,255); fill-opacity: 0.4"></path><path d="M-102.2759467929333,-1.3789725506660397L-102.2759467929333,9.339873617936876M-102.2759467929333,9.339873617936876L-89.13923022229238,10.334621586955771" style="fill:none;stroke:rgb(0,0,0);stroke-width:1;stroke-linecap:round"></path><path d="M-102.27594679293328,-1.378972550666043L-89.13923022229237,-0.3842245816471468L-98.76234454897762,-3.72062129439824z" style="fill:rgb(153,221,255); fill-opacity: 0.4"></path><path d="M-74.09194970814535,14.237255624911022L-61.291790130647925,5.70655820582185L-28.449997800330724,8.193428196800847z" style="fill:rgb(238,238,238); fill-opacity: 0.4"></path><path d="M-89.13923024034115,10.334621585589067L-85.62562799638549,7.9929728418568695L-68.23856991543067,1.400960757435817z" style="fill:rgb(255,187,187); fill-opacity: 0.4"></path><path d="M-95.28704117507985,21.138963370045865L-108.42375774572075,20.14421540102697L-78.00124922955669,9.618805371717471z" style="fill:rgb(238,238,238); fill-opacity: 0.4"></path><path d="M-102.2759467929333,-1.3789725506660397L-89.13923022229238,-0.38422458164714435" style="fill:none;stroke:rgb(0,0,0);stroke-width:1;stroke-linecap:round"></path><path d="M-85.62562799638549,-2.7258733267460453L-89.13923024034115,10.334621585589067L-89.13923024034115,-0.3842245830138481z" style="fill:rgb(255,187,187); fill-opacity: 0.4"></path><path d="M-89.13923022229237,-0.3842245816471468L-89.13923022229237,10.334621586955768L-85.62562797833671,-2.725873325379344zM-102.27594679293328,-1.378972550666043L-102.27594679293328,9.339873617936872L-89.13923022229237,-0.3842245816471468z" style="fill:rgb(153,221,255); fill-opacity: 0.4"></path><path d="M-61.291790130647925,-33.34252359641972L-61.291790130647925,5.70655820582185L-74.09194970814535,-24.811826177330538z" style="fill:rgb(238,238,238); fill-opacity: 0.4"></path><path d="M-85.62562799638549,-2.7258733267460453L-89.13923024034115,-0.3842245830138481L-68.23856991543067,1.400960757435817z" style="fill:rgb(255,187,187); fill-opacity: 0.4"></path><path d="M-91.13796580019762,8.624057402698575L-108.42375774572075,20.14421540102697L-108.42375774572075,-32.58905715003531z" style="fill:rgb(238,238,238); fill-opacity: 0.4"></path><path d="M-102.27594679293328,9.339873617936872L-89.13923022229237,10.334621586955768L-89.13923022229237,-0.3842245816471468z" style="fill:rgb(153,221,255); fill-opacity: 0.4"></path><path d="M-33.64478795503107,-6.492008012188321L-66.48658028534828,-8.978878003167319M-66.48658028534828,-13.851080807077734L-66.48658028534828,-8.978878003167319M-66.48658028534828,-8.978878003167319L-68.08367221441902,-7.9144922105617725M-89.13923022229238,-0.38422458164714435L-89.13923022229238,10.334621586955771M-89.13922878683397,10.33462148029933L-89.13922878683397,-0.3842246883035839M-89.13922878683397,10.33462148029933L-68.2385685298442,1.4009612417305792M-28.44999780033073,-30.85565360544071L-41.250157377828145,-22.32495618635154M-33.64478795503107,-11.364210816098737L-66.48658028534828,-13.851080807077734M-66.48658028534828,-13.851080807077734L-68.08367221441902,-12.786695014472189M15.639385522645746,8.908794135363346L-10.634047618636071,6.919298197325555M-10.634047618636071,-25.196674551342788L-10.634047618636071,6.919298197325555M-10.634047618636071,6.919298197325555L-21.161557029777082,13.935382396848944" style="fill:none;stroke:rgb(0,0,0);stroke-width:1;stroke-linecap:round"></path><path d="M-89.13923024034115,-0.3842245830138481L-89.13923024034115,10.334621585589067L-68.23856991543067,1.400960757435817z" style="fill:rgb(255,187,187); fill-opacity: 0.4"></path><path d="M-66.48658028534827,-13.851080807077734L-66.48658028534827,-8.978878003167319L-68.08367221441902,-12.786695014472189z" style="fill:rgb(153,221,255); fill-opacity: 0.4"></path><path d="M-89.13922878683397,-0.3842246883035839L-68.2385685298442,1.4009612417305792" style="fill:none;stroke:rgb(0,0,0);stroke-width:1;stroke-linecap:round"></path><path d="M-66.48658028534827,-8.978878003167319L-68.08367221441902,-7.9144922105617725L-68.08367221441902,-12.786695014472189zM-33.64478795503107,-6.492008012188321L-66.48658028534827,-8.978878003167319L-66.48658028534827,-13.851080807077734z" style="fill:rgb(153,221,255); fill-opacity: 0.4"></path><path d="M-68.08367221441902,-12.786695014472189L-68.08367221441902,-7.9144922105617725M-68.08367221441902,-7.9144922105617725L-35.24187988410182,-5.427622219582776" style="fill:none;stroke:rgb(0,0,0);stroke-width:1;stroke-linecap:round"></path><path d="M-68.08367221441902,-7.9144922105617725L-66.48658028534827,-8.978878003167319L-33.64478795503107,-6.492008012188321z" style="fill:rgb(153,221,255); fill-opacity: 0.4"></path><path d="M-68.08367221441902,-12.786695014472189L-35.24187988410182,-10.299825023493192" style="fill:none;stroke:rgb(0,0,0);stroke-width:1;stroke-linecap:round"></path><path d="M-41.25015737782815,16.72412561589002L-28.449997800330724,8.193428196800847L-28.449997800330724,-30.855653605440718zM15.639385522645746,8.908794135363348L-10.634047618636071,6.9192981973255545L-10.634047618636071,-25.196674551342788z" style="fill:rgb(238,238,238); fill-opacity: 0.4"></path><path d="M-68.08367221441902,-12.786695014472189L-35.24187988410183,-10.299825023493192L-66.48658028534827,-13.851080807077734z" style="fill:rgb(153,221,255); fill-opacity: 0.4"></path><path d="M-95.28704117507985,-31.594309181016413L-95.28704117507985,21.138963370045865L-78.00124922955669,-43.11446717934481z" style="fill:rgb(238,238,238); fill-opacity: 0.4"></path><path d="M-33.64478795503107,-11.364210816098737L-33.64478795503107,-6.492008012188321L-66.48658028534827,-13.851080807077734z" style="fill:rgb(153,221,255); fill-opacity: 0.4"></path><path d="M-61.291790130647925,5.70655820582185L-74.09194970814535,14.237255624911022L-74.09194970814535,-24.811826177330538z" style="fill:rgb(238,238,238); fill-opacity: 0.4"></path><path d="M-68.08367221441902,-12.786695014472189L-68.08367221441902,-7.9144922105617725L-35.24187988410183,-10.299825023493192z" style="fill:rgb(153,221,255); fill-opacity: 0.4"></path><path d="M-108.42375774572075,-32.58905715003531L-95.28704117507985,-31.594309181016413L-91.13796580019762,-44.1092151483637z" style="fill:rgb(238,238,238); fill-opacity: 0.4"></path><path d="M15.639385522645746,-23.207178613304997L-10.634047618636071,-25.196674551342788M-10.634047618636071,-25.196674551342788L-21.161557029777082,-18.1805903518194" style="fill:none;stroke:rgb(0,0,0);stroke-width:1;stroke-linecap:round"></path><path d="M-41.25015737782815,-22.324956186351542L-28.449997800330724,-30.855653605440718L-61.291790130647925,-33.34252359641972z" style="fill:rgb(238,238,238); fill-opacity: 0.4"></path><path d="M-35.24187988410183,-10.299825023493192L-33.64478795503107,-11.364210816098737L-66.48658028534827,-13.851080807077734zM-35.24187988410183,-5.427622219582776L-68.08367221441902,-7.9144922105617725L-33.64478795503107,-6.492008012188321z" style="fill:rgb(153,221,255); fill-opacity: 0.4"></path><path d="M15.639385522645746,-23.207178613304997L15.639385522645746,8.908794135363346M15.639385522645746,8.908794135363346L5.111876111504736,15.924878334886733M-33.64478968784371,-11.364210883311205L-33.64478968784371,-6.492008195563156M-33.64478968784371,-6.492008195563156L-35.241881616914476,-5.427622402957611M-33.64478968784371,-6.492008195563156L-15.563275705903088,-6.7246319277540705M-33.64478795503107,-11.364210816098737L-33.64478795503107,-6.492008012188321M-33.64478795503107,-6.492008012188321L-35.24187988410182,-5.427622219582776M-33.64478968784371,-11.364210883311205L-35.241881616914476,-10.29982509070566M-33.64478968784371,-11.364210883311205L-15.563275705903088,-6.7246319277540705M-33.64478795503107,-11.364210816098737L-35.24187988410182,-10.299825023493192M-108.42375774572078,-32.58905715003531L-108.42375774572078,20.144215401026973M-108.42375774572078,20.144215401026973L-95.28704117507986,21.138963370045865" style="fill:none;stroke:rgb(0,0,0);stroke-width:1;stroke-linecap:round"></path><path d="M-68.08367221441902,-7.9144922105617725L-35.24187988410183,-5.427622219582776L-35.24187988410183,-10.299825023493192z" style="fill:rgb(153,221,255); fill-opacity: 0.4"></path><path d="M15.639385522645746,-23.207178613304997L15.639385522645746,8.908794135363348L-10.634047618636071,-25.196674551342788zM-41.25015737782815,16.72412561589002L-74.09194970814535,14.237255624911022L-28.449997800330724,8.193428196800847z" style="fill:rgb(238,238,238); fill-opacity: 0.4"></path><path d="M-33.64478845201045,-11.36421085373137L-33.64478845201045,-6.492008049820954L-35.24188038108121,-5.427622257215409z" style="fill:rgb(255,187,187); fill-opacity: 0.4"></path><path d="M-35.24187988410183,-5.427622219582776L-33.64478795503107,-6.492008012188321L-33.64478795503107,-11.364210816098737z" style="fill:rgb(153,221,255); fill-opacity: 0.4"></path><path d="M-33.64478845201045,-6.492008049820954L-33.64478845201045,-11.36421085373137L-15.5632753798063,-6.724631905061155zM-33.64478845201045,-11.36421085373137L-35.24188038108121,-5.427622257215409L-35.24188038108121,-10.299825061125825z" style="fill:rgb(255,187,187); fill-opacity: 0.4"></path><path d="M-35.24187988410183,-10.299825023493192L-35.24187988410183,-5.427622219582776L-33.64478795503107,-11.364210816098737z" style="fill:rgb(153,221,255); fill-opacity: 0.4"></path><path d="M-21.161557029777082,13.935382396848944L-10.634047618636071,6.9192981973255545L15.639385522645746,8.908794135363348z" style="fill:rgb(238,238,238); fill-opacity: 0.4"></path><path d="M-35.241881616914476,-5.427622402957611L-35.241881616914476,-10.29982509070566M-35.241881616914476,-5.427622402957611L-15.563275705903088,-6.7246319277540705M-35.24187988410182,-10.299825023493192L-35.24187988410182,-5.427622219582776" style="fill:none;stroke:rgb(0,0,0);stroke-width:1;stroke-linecap:round"></path><path d="M-35.24188038108121,-5.427622257215409L-33.64478845201045,-6.492008049820954L-15.5632753798063,-6.724631905061155zM-33.64478845201045,-11.36421085373137L-35.24188038108121,-10.299825061125825L-15.5632753798063,-6.724631905061155z" style="fill:rgb(255,187,187); fill-opacity: 0.4"></path><path d="M-95.28704117507986,-31.594309181016413L-95.28704117507986,21.138963370045865M-35.241881616914476,-10.29982509070566L-15.563275705903088,-6.7246319277540705" style="fill:none;stroke:rgb(0,0,0);stroke-width:1;stroke-linecap:round"></path><path d="M-10.634047618636071,-25.196674551342788L-10.634047618636071,6.9192981973255545L-21.161557029777082,-18.1805903518194z" style="fill:rgb(238,238,238); fill-opacity: 0.4"></path><path d="M-35.24188038108121,-10.299825061125825L-35.24188038108121,-5.427622257215409L-15.5632753798063,-6.724631905061155z" style="fill:rgb(255,187,187); fill-opacity: 0.4"></path><path d="M-74.09194970814535,-24.811826177330534L-74.09194970814535,14.237255624911025M-74.09194970814535,14.237255624911025L-41.250157377828145,16.724125615890024M15.639385522645746,-23.207178613304997L5.111876111504736,-16.19109441378161" style="fill:none;stroke:rgb(0,0,0);stroke-width:1;stroke-linecap:round"></path><path d="M-74.09194970814535,-24.811826177330538L-41.25015737782815,-22.324956186351542L-61.291790130647925,-33.34252359641972zM-108.42375774572075,20.14421540102697L-95.28704117507985,21.138963370045865L-95.28704117507985,-31.594309181016413z" style="fill:rgb(238,238,238); fill-opacity: 0.4"></path><path d="M11.250906756981601,-10.02780885531226L-15.022526384300216,-12.017304793350052M-15.022526384300216,-14.940626475696304L-15.022526384300216,-12.017304793350052M-15.022526384300216,-12.017304793350052L-15.980781541742672,-11.378673317786726M11.250906756981601,-12.951130537658509L-15.022526384300216,-14.940626475696304M-15.022526384300216,-14.940626475696304L-15.980781541742672,-14.301995000132974" style="fill:none;stroke:rgb(0,0,0);stroke-width:1;stroke-linecap:round"></path><path d="M-15.022526384300216,-14.940626475696304L-15.022526384300216,-12.017304793350052L-15.980781541742669,-14.301995000132978zM-15.022526384300216,-12.017304793350052L-15.980781541742669,-11.378673317786726L-15.980781541742669,-14.301995000132978z" style="fill:rgb(153,221,255); fill-opacity: 0.4"></path><path d="M-108.42375774572075,-32.58905715003531L-108.42375774572075,20.14421540102697L-95.28704117507985,-31.594309181016413zM-41.25015737782815,-22.324956186351542L-41.25015737782815,16.72412561589002L-28.449997800330724,-30.855653605440718z" style="fill:rgb(238,238,238); fill-opacity: 0.4"></path><path d="M-15.980781541742672,-14.301995000132974L-15.980781541742672,-11.378673317786726M-15.980781541742672,-11.378673317786726L10.292651599539147,-9.389177379748933" style="fill:none;stroke:rgb(0,0,0);stroke-width:1;stroke-linecap:round"></path><path d="M11.2509067569816,-10.02780885531226L-15.022526384300216,-12.017304793350052L-15.022526384300216,-14.940626475696304z" style="fill:rgb(153,221,255); fill-opacity: 0.4"></path><path d="M-15.980781541742672,-14.301995000132974L10.292651599539147,-12.312499062095183" style="fill:none;stroke:rgb(0,0,0);stroke-width:1;stroke-linecap:round"></path><path d="M5.111876111504736,15.924878334886733L15.639385522645746,8.908794135363348L15.639385522645746,-23.207178613304997z" style="fill:rgb(238,238,238); fill-opacity: 0.4"></path><path d="M-15.980781541742669,-11.378673317786726L-15.022526384300216,-12.017304793350052L11.2509067569816,-10.02780885531226z" style="fill:rgb(153,221,255); fill-opacity: 0.4"></path><path d="M-108.42375774572078,-32.58905715003531L-95.28704117507986,-31.594309181016413" style="fill:none;stroke:rgb(0,0,0);stroke-width:1;stroke-linecap:round"></path><path d="M-10.634047618636071,6.9192981973255545L-21.161557029777082,13.935382396848944L-21.161557029777082,-18.1805903518194z" style="fill:rgb(238,238,238); fill-opacity: 0.4"></path><path d="M37.0032846259959,31.209550428284857L30.43492634067545,30.712176443775405M30.43492634067545,-36.599792839638035L30.43492634067545,30.712176443775405M30.43492634067545,30.712176443775405L28.220886799130756,32.18772847017517" style="fill:none;stroke:rgb(0,0,0);stroke-width:1;stroke-linecap:round"></path><path d="M-15.980781541742669,-14.301995000132978L10.292651599539147,-12.312499062095183L-15.022526384300216,-14.940626475696304z" style="fill:rgb(153,221,255); fill-opacity: 0.4"></path><path d="M5.111876111504736,-16.191094413781606L15.639385522645746,-23.207178613304997L-10.634047618636071,-25.196674551342788z" style="fill:rgb(238,238,238); fill-opacity: 0.4"></path><path d="M-15.980781541742669,-14.301995000132978L-15.980781541742669,-11.378673317786726L10.292651599539147,-12.312499062095183zM11.2509067569816,-12.951130537658512L11.2509067569816,-10.02780885531226L-15.022526384300216,-14.940626475696304z" style="fill:rgb(153,221,255); fill-opacity: 0.4"></path><path d="M-74.09194970814535,-24.811826177330534L-41.250157377828145,-22.32495618635154M37.0032846259959,-36.102418855128576L37.0032846259959,31.209550428284857M37.0032846259959,31.209550428284857L34.78924508445121,32.685102454684625" style="fill:none;stroke:rgb(0,0,0);stroke-width:1;stroke-linecap:round"></path><path d="M10.292651599539147,-12.312499062095183L11.2509067569816,-12.951130537658512L-15.022526384300216,-14.940626475696304zM10.292651599539147,-9.389177379748935L-15.980781541742669,-11.378673317786726L11.2509067569816,-10.02780885531226z" style="fill:rgb(153,221,255); fill-opacity: 0.4"></path><path d="M-74.09194970814535,-24.811826177330538L-74.09194970814535,14.237255624911022L-41.25015737782815,-22.324956186351542zM28.220886799130756,32.18772847017518L30.43492634067545,30.712176443775412L37.0032846259959,31.209550428284857zM5.111876111504736,15.924878334886733L-21.161557029777082,13.935382396848944L15.639385522645746,8.908794135363348zM-74.09194970814535,14.237255624911022L-41.25015737782815,16.72412561589002L-41.25015737782815,-22.324956186351542z" style="fill:rgb(238,238,238); fill-opacity: 0.4"></path><path d="M11.25090643781494,-12.951130339416167L11.25090643781494,-10.027808657069917M11.25090643781494,-10.027808657069917L10.292651308930717,-9.38917720053929M11.25090643781494,-10.027808657069917L29.411221160437687,-3.789456316964072M11.250906756981601,-12.951130537658509L11.250906756981601,-10.02780885531226M11.250906756981601,-10.02780885531226L10.292651599539147,-9.389177379748933" style="fill:none;stroke:rgb(0,0,0);stroke-width:1;stroke-linecap:round"></path><path d="M-15.980781541742669,-11.378673317786726L10.292651599539147,-9.389177379748935L10.292651599539147,-12.312499062095183z" style="fill:rgb(153,221,255); fill-opacity: 0.4"></path><path d="M-41.250157377828145,-22.32495618635154L-41.250157377828145,16.724125615890024M11.25090643781494,-12.951130339416167L10.292651308930717,-12.312498882885542M11.25090643781494,-12.951130339416167L29.411221160437687,-3.789456316964072M11.250906756981601,-12.951130537658509L10.292651599539147,-12.312499062095183" style="fill:none;stroke:rgb(0,0,0);stroke-width:1;stroke-linecap:round"></path><path d="M11.250906720884066,-12.951130540391917L11.250906720884066,-10.027808858045665L10.292651563441614,-9.389177382482337z" style="fill:rgb(255,187,187); fill-opacity: 0.4"></path><path d="M10.292651599539147,-9.389177379748935L11.2509067569816,-10.02780885531226L11.2509067569816,-12.951130537658512z" style="fill:rgb(153,221,255); fill-opacity: 0.4"></path><path d="M34.78924508445121,32.685102454684625L28.220886799130756,32.18772847017518L37.0032846259959,31.209550428284857z" style="fill:rgb(238,238,238); fill-opacity: 0.4"></path><path d="M11.250906720884066,-12.951130540391917L10.292651563441614,-9.389177382482337L10.292651563441614,-12.312499064828588z" style="fill:rgb(255,187,187); fill-opacity: 0.4"></path><path d="M10.292651599539147,-12.312499062095183L10.292651599539147,-9.389177379748935L11.2509067569816,-12.951130537658512z" style="fill:rgb(153,221,255); fill-opacity: 0.4"></path><path d="M37.0032846259959,31.209550428284857L30.43492634067545,30.712176443775412L30.43492634067545,-36.59979283963803z" style="fill:rgb(238,238,238); fill-opacity: 0.4"></path><path d="M11.250906720884066,-10.027808858045665L11.250906720884066,-12.951130540391917L29.411220508227572,-3.7894563588721675z" style="fill:rgb(255,187,187); fill-opacity: 0.4"></path><path d="M10.292651308930717,-9.38917720053929L10.292651308930717,-12.312498882885542M10.292651308930717,-9.38917720053929L29.411221160437687,-3.789456316964072M10.292651599539147,-12.312499062095183L10.292651599539147,-9.389177379748933M28.220886799130756,-35.12424081323826L28.220886799130756,32.18772847017517M28.220886799130756,32.18772847017517L34.78924508445121,32.685102454684625M35.66073465443608,18.85285273261506L29.092376369115623,18.355478748105615M29.092376369115623,15.432157065759363L29.092376369115623,18.355478748105615M29.092376369115623,18.355478748105615L28.13412121167317,18.99411022366894" style="fill:none;stroke:rgb(0,0,0);stroke-width:1;stroke-linecap:round"></path><path d="M10.292651563441614,-9.389177382482337L11.250906720884066,-10.027808858045665L29.411220508227572,-3.7894563588721675z" style="fill:rgb(255,187,187); fill-opacity: 0.4"></path><path d="M10.292651308930717,-12.312498882885542L29.411221160437687,-3.789456316964072" style="fill:none;stroke:rgb(0,0,0);stroke-width:1;stroke-linecap:round"></path><path d="M11.250906720884066,-12.951130540391917L10.292651563441614,-12.312499064828588L29.411220508227572,-3.7894563588721675z" style="fill:rgb(255,187,187); fill-opacity: 0.4"></path><path d="M35.66073465443608,15.929531050268812L29.092376369115623,15.432157065759363M29.092376369115623,15.432157065759363L28.13412121167317,16.070788541322692M-21.161557029777082,-18.1805903518194L-21.161557029777082,13.935382396848944M-21.161557029777082,13.935382396848944L5.111876111504736,15.924878334886733" style="fill:none;stroke:rgb(0,0,0);stroke-width:1;stroke-linecap:round"></path><path d="M-21.161557029777082,-18.1805903518194L5.111876111504736,-16.191094413781606L-10.634047618636071,-25.196674551342788z" style="fill:rgb(238,238,238); fill-opacity: 0.4"></path><path d="M35.66073465443608,18.85285273261506L29.092376369115623,18.35547874810561L29.092376369115623,15.432157065759363z" style="fill:rgb(153,221,255); fill-opacity: 0.4"></path><path d="M10.292651563441614,-12.312499064828588L10.292651563441614,-9.389177382482337L29.411220508227572,-3.7894563588721675z" style="fill:rgb(255,187,187); fill-opacity: 0.4"></path><path d="M29.092376369115623,15.432157065759363L29.092376369115623,18.35547874810561L28.13412121167317,16.07078854132269z" style="fill:rgb(153,221,255); fill-opacity: 0.4"></path><path d="M62.52391869121737,33.14204236932207L55.95556040589692,32.64466838481261M55.95556040589692,-34.66730089860082L55.95556040589692,32.64466838481261M55.95556040589692,32.64466838481261L53.741520864352225,34.12022041121239M34.78924508445121,-34.62686682872881L34.78924508445121,32.685102454684625" style="fill:none;stroke:rgb(0,0,0);stroke-width:1;stroke-linecap:round"></path><path d="M28.13412121167317,18.994110223668937L29.092376369115623,18.35547874810561L35.66073465443608,18.85285273261506z" style="fill:rgb(153,221,255); fill-opacity: 0.4"></path><path d="M111.9063625201252,16.198391907903208L85.63292937884339,14.208895969865416M85.63292937884339,-17.907076778802924L85.63292937884339,14.208895969865416M85.63292937884339,14.208895969865416L75.10541996770237,21.224980169388804" style="fill:none;stroke:rgb(0,0,0);stroke-width:1;stroke-linecap:round"></path><path d="M35.66073465443608,15.929531050268812L35.66073465443608,18.85285273261506L29.092376369115623,15.432157065759363zM29.092376369115623,18.35547874810561L28.13412121167317,18.994110223668937L28.13412121167317,16.07078854132269z" style="fill:rgb(153,221,255); fill-opacity: 0.4"></path><path d="M35.66073465443608,15.929531050268812L35.66073465443608,18.85285273261506M35.66073465443608,18.85285273261506L34.70247949699362,19.491484208178388M35.66073440510044,15.929530304710225L35.66073440510044,18.852851987056475M35.66073440510044,18.852851987056475L34.70247922861917,19.491483475308268M35.66073440510044,18.852851987056475L54.133882605290175,2.103536927396334" style="fill:none;stroke:rgb(0,0,0);stroke-width:1;stroke-linecap:round"></path><path d="M30.43492634067545,30.712176443775412L28.220886799130756,32.18772847017518L28.220886799130756,-35.12424081323826zM34.78924508445121,32.685102454684625L37.0032846259959,31.209550428284857L37.0032846259959,-36.102418855128576z" style="fill:rgb(238,238,238); fill-opacity: 0.4"></path><path d="M28.13412121167317,16.070788541322692L28.13412121167317,18.99411022366894M28.13412121167317,18.99411022366894L34.70247949699362,19.491484208178388M35.66073465443608,15.929531050268812L34.70247949699362,16.568162525832136M35.66073440510044,15.929530304710225L34.70247922861917,16.568161792962016M35.66073440510044,15.929530304710225L54.133882605290175,2.103536927396334" style="fill:none;stroke:rgb(0,0,0);stroke-width:1;stroke-linecap:round"></path><path d="M34.70247949699362,16.568162525832136L35.66073465443608,15.929531050268812L29.092376369115623,15.432157065759363zM28.13412121167317,16.07078854132269L34.70247949699362,16.568162525832136L29.092376369115623,15.432157065759363zM34.70247949699362,19.491484208178385L28.13412121167317,18.994110223668937L35.66073465443608,18.85285273261506z" style="fill:rgb(153,221,255); fill-opacity: 0.4"></path><path d="M35.660734645411694,15.92953104958546L35.660734645411694,18.85285273193171L34.70247948796924,19.491484207495034z" style="fill:rgb(255,187,187); fill-opacity: 0.4"></path><path d="M34.70247949699362,19.491484208178385L35.66073465443608,18.85285273261506L35.66073465443608,15.929531050268812z" style="fill:rgb(153,221,255); fill-opacity: 0.4"></path><path d="M28.13412121167317,16.070788541322692L34.70247949699362,16.568162525832136M62.52391869121737,-34.16992691409137L62.52391869121737,33.14204236932207M62.52391869121737,33.14204236932207L60.30987914967268,34.61759439572184" style="fill:none;stroke:rgb(0,0,0);stroke-width:1;stroke-linecap:round"></path><path d="M28.13412121167317,16.07078854132269L28.13412121167317,18.994110223668937L34.70247949699362,16.568162525832136z" style="fill:rgb(153,221,255); fill-opacity: 0.4"></path><path d="M5.111876111504736,-16.191094413781606L5.111876111504736,15.924878334886733L15.639385522645746,-23.207178613304997zM53.741520864352225,34.120220411212394L55.95556040589692,32.64466838481262L62.52391869121738,33.14204236932207z" style="fill:rgb(238,238,238); fill-opacity: 0.4"></path><path d="M28.13412121167317,18.994110223668937L34.70247949699362,19.491484208178385L34.70247949699362,16.568162525832136z" style="fill:rgb(153,221,255); fill-opacity: 0.4"></path><path d="M35.660734645411694,15.92953104958546L34.70247948796924,19.491484207495034L34.70247948796924,16.568162525148786z" style="fill:rgb(255,187,187); fill-opacity: 0.4"></path><path d="M34.70247949699362,16.568162525832136L34.70247949699362,19.491484208178385L35.66073465443608,15.929531050268812z" style="fill:rgb(153,221,255); fill-opacity: 0.4"></path><path d="M37.0032846259959,-36.102418855128576L37.0032846259959,31.209550428284857L30.43492634067545,-36.59979283963803z" style="fill:rgb(238,238,238); fill-opacity: 0.4"></path><path d="M34.70247949699362,16.568162525832136L34.70247949699362,19.491484208178388M34.70247922861917,19.491483475308268L34.70247922861917,16.568161792962016M34.70247922861917,19.491483475308268L54.133882605290175,2.103536927396334" style="fill:none;stroke:rgb(0,0,0);stroke-width:1;stroke-linecap:round"></path><path d="M30.43492634067545,-36.59979283963803L30.43492634067545,30.712176443775412L28.220886799130756,-35.12424081323826z" style="fill:rgb(238,238,238); fill-opacity: 0.4"></path><path d="M34.70247922861917,16.568161792962016L54.133882605290175,2.103536927396334" style="fill:none;stroke:rgb(0,0,0);stroke-width:1;stroke-linecap:round"></path><path d="M28.220886799130756,32.18772847017518L34.78924508445121,32.685102454684625L34.78924508445121,-34.62686682872881z" style="fill:rgb(238,238,238); fill-opacity: 0.4"></path><path d="M35.660734645411694,18.85285273193171L35.660734645411694,15.92953104958546L54.13388286464024,2.1035369054313406zM34.70247948796924,19.491484207495034L35.660734645411694,18.85285273193171L54.13388286464024,2.1035369054313406z" style="fill:rgb(255,187,187); fill-opacity: 0.4"></path><path d="M111.53332524095788,-1.6203773898132179L85.25989209967607,-3.60987332785101M85.25989209967607,-8.482076131761426L85.25989209967607,-3.60987332785101M85.25989209967607,-3.60987332785101L83.66280017060531,-2.545487535245465" style="fill:none;stroke:rgb(0,0,0);stroke-width:1;stroke-linecap:round"></path><path d="M60.30987914967269,34.61759439572184L53.741520864352225,34.120220411212394L62.52391869121738,33.14204236932207zM111.90636252012523,16.198391907903204L85.63292937884339,14.208895969865413L85.63292937884339,-17.907076778802924zM62.52391869121738,33.14204236932207L55.95556040589692,32.64466838481262L55.95556040589692,-34.667300898600814z" style="fill:rgb(238,238,238); fill-opacity: 0.4"></path><path d="M35.660734645411694,15.92953104958546L34.70247948796924,16.568162525148786L54.13388286464024,2.1035369054313406z" style="fill:rgb(255,187,187); fill-opacity: 0.4"></path><path d="M53.741520864352225,-33.19174887220105L53.741520864352225,34.12022041121239M53.741520864352225,34.12022041121239L60.30987914967268,34.61759439572184M-21.161557029777082,-18.1805903518194L5.111876111504736,-16.19109441378161" style="fill:none;stroke:rgb(0,0,0);stroke-width:1;stroke-linecap:round"></path><path d="M34.70247948796924,16.568162525148786L34.70247948796924,19.491484207495034L54.13388286464024,2.1035369054313406z" style="fill:rgb(255,187,187); fill-opacity: 0.4"></path><path d="M111.53332524095788,-6.492580193723634L85.25989209967607,-8.482076131761426M85.25989209967607,-8.482076131761426L83.66280017060531,-7.4176903391558815" style="fill:none;stroke:rgb(0,0,0);stroke-width:1;stroke-linecap:round"></path><path d="M-21.161557029777082,-18.1805903518194L-21.161557029777082,13.935382396848944L5.111876111504736,-16.191094413781606z" style="fill:rgb(238,238,238); fill-opacity: 0.4"></path><path d="M37.0032846259959,-36.102418855128576L30.43492634067545,-36.599792839638035M30.43492634067545,-36.599792839638035L28.220886799130756,-35.12424081323826" style="fill:none;stroke:rgb(0,0,0);stroke-width:1;stroke-linecap:round"></path><path d="M-21.161557029777082,13.935382396848944L5.111876111504736,15.924878334886733L5.111876111504736,-16.191094413781606z" style="fill:rgb(238,238,238); fill-opacity: 0.4"></path><path d="M111.9063625201252,-15.917580840765135L85.63292937884339,-17.907076778802924M85.63292937884339,-17.907076778802924L75.10541996770237,-10.890992579279537M5.111876111504736,-16.19109441378161L5.111876111504736,15.924878334886733" style="fill:none;stroke:rgb(0,0,0);stroke-width:1;stroke-linecap:round"></path><path d="M85.25989209967607,-8.482076131761426L85.25989209967607,-3.609873327851009L83.66280017060531,-7.4176903391558815z" style="fill:rgb(153,221,255); fill-opacity: 0.4"></path><path d="M34.78924508445121,-34.62686682872881L34.78924508445121,32.685102454684625L37.0032846259959,-36.102418855128576z" style="fill:rgb(238,238,238); fill-opacity: 0.4"></path><path d="M60.30987914967268,-32.6943748876916L60.30987914967268,34.61759439572184" style="fill:none;stroke:rgb(0,0,0);stroke-width:1;stroke-linecap:round"></path><path d="M111.5333252409579,-1.6203773898132179L85.25989209967607,-3.609873327851009L85.25989209967607,-8.482076131761426z" style="fill:rgb(153,221,255); fill-opacity: 0.4"></path><path d="M111.9063625201252,-15.917580840765135L111.9063625201252,16.198391907903208M111.9063625201252,16.198391907903208L101.3788531089842,23.214476107426595" style="fill:none;stroke:rgb(0,0,0);stroke-width:1;stroke-linecap:round"></path><path d="M28.220886799130756,-35.12424081323826L28.220886799130756,32.18772847017518L34.78924508445121,-34.62686682872881z" style="fill:rgb(238,238,238); fill-opacity: 0.4"></path><path d="M85.25989209967607,-3.609873327851009L83.66280017060531,-2.5454875352454644L83.66280017060531,-7.4176903391558815z" style="fill:rgb(153,221,255); fill-opacity: 0.4"></path><path d="M37.0032846259959,-36.102418855128576L34.78924508445121,-34.62686682872881" style="fill:none;stroke:rgb(0,0,0);stroke-width:1;stroke-linecap:round"></path><path d="M55.95556040589692,32.64466838481262L53.741520864352225,34.120220411212394L53.741520864352225,-33.191748872201046zM60.30987914967269,34.61759439572184L62.52391869121738,33.14204236932207L62.52391869121738,-34.16992691409137z" style="fill:rgb(238,238,238); fill-opacity: 0.4"></path><path d="M83.66280017060531,-2.5454875352454644L85.25989209967607,-3.609873327851009L111.5333252409579,-1.6203773898132179z" style="fill:rgb(153,221,255); fill-opacity: 0.4"></path><path d="M83.66280017060531,-7.4176903391558815L83.66280017060531,-2.545487535245465M83.66280017060531,-2.545487535245465L109.93623331188712,-0.5559915972076734" style="fill:none;stroke:rgb(0,0,0);stroke-width:1;stroke-linecap:round"></path><path d="M34.78924508445121,-34.62686682872881L37.0032846259959,-36.102418855128576L30.43492634067545,-36.59979283963803zM111.90636252012523,-15.917580840765135L111.90636252012523,16.198391907903204L85.63292937884339,-17.907076778802924z" style="fill:rgb(238,238,238); fill-opacity: 0.4"></path><path d="M164.83675519849345,22.829627733414345L131.99496286817626,20.342757742435346M131.99496286817626,-18.706324059806214L131.99496286817626,20.342757742435346M131.99496286817626,20.342757742435346L119.19480329067882,28.87345516152452M83.66280017060531,-7.4176903391558815L109.93623331188712,-5.428194401118089" style="fill:none;stroke:rgb(0,0,0);stroke-width:1;stroke-linecap:round"></path><path d="M62.52391869121738,-34.16992691409137L62.52391869121738,33.14204236932207L55.95556040589692,-34.667300898600814zM28.220886799130756,-35.12424081323826L34.78924508445121,-34.62686682872881L30.43492634067545,-36.59979283963803z" style="fill:rgb(238,238,238); fill-opacity: 0.4"></path><path d="M111.5333252409579,-6.492580193723635L111.5333252409579,-1.6203773898132179L85.25989209967607,-8.482076131761426z" style="fill:rgb(153,221,255); fill-opacity: 0.4"></path><path d="M55.95556040589692,-34.667300898600814L55.95556040589692,32.64466838481262L53.741520864352225,-33.191748872201046z" style="fill:rgb(238,238,238); fill-opacity: 0.4"></path><path d="M83.66280017060531,-7.4176903391558815L109.93623331188714,-5.428194401118089L85.25989209967607,-8.482076131761426z" style="fill:rgb(153,221,255); fill-opacity: 0.4"></path><path d="M53.741520864352225,34.120220411212394L60.30987914967269,34.61759439572184L60.30987914967269,-32.6943748876916zM75.10541996770237,21.224980169388804L85.63292937884339,14.208895969865413L111.90636252012523,16.198391907903204z" style="fill:rgb(238,238,238); fill-opacity: 0.4"></path><path d="M28.220886799130756,-35.12424081323826L34.78924508445121,-34.62686682872881" style="fill:none;stroke:rgb(0,0,0);stroke-width:1;stroke-linecap:round"></path><path d="M83.66280017060531,-7.4176903391558815L83.66280017060531,-2.5454875352454644L109.93623331188714,-5.428194401118089zM109.93623331188714,-5.428194401118089L111.5333252409579,-6.492580193723635L85.25989209967607,-8.482076131761426z" style="fill:rgb(153,221,255); fill-opacity: 0.4"></path><path d="M111.53332605844274,-6.4925804235785245L111.53332605844274,-1.6203773873433747M111.53332605844274,-1.6203773873433747L109.93623412937198,-0.555991594737831M111.53332605844274,-1.6203773873433747L130.5704553664605,-3.637598692274586M111.53332524095788,-6.492580193723634L111.53332524095788,-1.6203773898132179M111.53332524095788,-1.6203773898132179L109.93623331188712,-0.5559915972076734" style="fill:none;stroke:rgb(0,0,0);stroke-width:1;stroke-linecap:round"></path><path d="M109.93623331188714,-0.5559915972076734L83.66280017060531,-2.5454875352454644L111.5333252409579,-1.6203773898132179z" style="fill:rgb(153,221,255); fill-opacity: 0.4"></path><path d="M61.02401305641956,-13.238864411864158L54.45565477109911,-13.736238396373606M54.45565477109911,-15.685119517937775L54.45565477109911,-13.736238396373606M54.45565477109911,-13.736238396373606L53.816817999470814,-13.31048407933139M111.53332524095788,-6.492580193723634L109.93623331188712,-5.428194401118089M111.53332605844274,-6.4925804235785245L109.93623412937198,-5.428194630972981M111.53332605844274,-6.4925804235785245L130.5704553664605,-3.637598692274586" style="fill:none;stroke:rgb(0,0,0);stroke-width:1;stroke-linecap:round"></path><path d="M85.63292937884339,-17.907076778802924L85.63292937884339,14.208895969865413L75.10541996770237,-10.890992579279537z" style="fill:rgb(238,238,238); fill-opacity: 0.4"></path><path d="M62.52391869121737,-34.16992691409137L55.95556040589692,-34.66730089860082M55.95556040589692,-34.66730089860082L53.741520864352225,-33.19174887220105M61.02401305641956,-15.187745533428325L54.45565477109911,-15.685119517937775M54.45565477109911,-15.685119517937775L53.816817999470814,-15.259365200895555" style="fill:none;stroke:rgb(0,0,0);stroke-width:1;stroke-linecap:round"></path><path d="M61.02401305641958,-13.23886441186416L54.45565477109911,-13.736238396373606L54.45565477109911,-15.685119517937778zM54.45565477109911,-15.685119517937778L54.45565477109911,-13.736238396373606L53.816817999470814,-15.259365200895559z" style="fill:rgb(153,221,255); fill-opacity: 0.4"></path><path d="M111.53332520486036,-6.4925801964570375L111.53332520486036,-1.6203773925466205L109.9362332757896,-0.5559915999410759z" style="fill:rgb(255,187,187); fill-opacity: 0.4"></path><path d="M109.93623331188714,-0.5559915972076734L111.5333252409579,-1.6203773898132179L111.5333252409579,-6.492580193723635zM83.66280017060531,-2.5454875352454644L109.93623331188714,-0.5559915972076734L109.93623331188714,-5.428194401118089z" style="fill:rgb(153,221,255); fill-opacity: 0.4"></path><path d="M111.9063625201252,-15.917580840765135L101.3788531089842,-8.901496641241746" style="fill:none;stroke:rgb(0,0,0);stroke-width:1;stroke-linecap:round"></path><path d="M53.816817999470814,-13.31048407933139L54.45565477109911,-13.736238396373606L61.02401305641958,-13.23886441186416zM54.45565477109911,-13.736238396373606L53.816817999470814,-13.31048407933139L53.816817999470814,-15.259365200895559z" style="fill:rgb(153,221,255); fill-opacity: 0.4"></path><path d="M60.30987914967269,-32.6943748876916L60.30987914967269,34.61759439572184L62.52391869121738,-34.16992691409137z" style="fill:rgb(238,238,238); fill-opacity: 0.4"></path><path d="M111.53332520486036,-1.6203773925466205L111.53332520486036,-6.4925801964570375L130.57046190916736,-3.6375981909589394z" style="fill:rgb(255,187,187); fill-opacity: 0.4"></path><path d="M61.02401305641958,-15.187745533428329L61.02401305641958,-13.23886441186416L54.45565477109911,-15.685119517937778z" style="fill:rgb(153,221,255); fill-opacity: 0.4"></path><path d="M53.816817999470814,-15.259365200895555L53.816817999470814,-13.31048407933139M53.816817999470814,-13.31048407933139L60.385176284791264,-12.81311009482194M61.02401010605919,-15.187745048092388L61.02401010605919,-13.238864855827156M61.02401010605919,-13.238864855827156L60.385173372508525,-12.813110564161871M61.02401010605919,-13.238864855827156L76.98224531229666,-3.0970182642630846M61.02401305641956,-15.187745533428325L61.02401305641956,-13.238864411864158M61.02401305641956,-13.238864411864158L60.385176284791264,-12.81311009482194" style="fill:none;stroke:rgb(0,0,0);stroke-width:1;stroke-linecap:round"></path><path d="M53.741520864352225,-33.191748872201046L53.741520864352225,34.120220411212394L60.30987914967269,-32.6943748876916z" style="fill:rgb(238,238,238); fill-opacity: 0.4"></path><path d="M53.816817999470814,-15.259365200895555L60.385176284791264,-14.76199121638611" style="fill:none;stroke:rgb(0,0,0);stroke-width:1;stroke-linecap:round"></path><path d="M53.816817999470814,-15.259365200895559L60.38517628479127,-14.76199121638611L54.45565477109911,-15.685119517937778z" style="fill:rgb(153,221,255); fill-opacity: 0.4"></path><path d="M62.52391869121737,-34.16992691409137L60.30987914967268,-32.6943748876916" style="fill:none;stroke:rgb(0,0,0);stroke-width:1;stroke-linecap:round"></path><path d="M60.38517628479127,-14.76199121638611L61.02401305641958,-15.187745533428329L54.45565477109911,-15.685119517937778z" style="fill:rgb(153,221,255); fill-opacity: 0.4"></path><path d="M164.83675519849345,22.829627733414345L131.99496286817626,20.342757742435346L131.99496286817626,-18.706324059806214z" style="fill:rgb(238,238,238); fill-opacity: 0.4"></path><path d="M61.02401010605919,-15.187745048092388L60.385173372508525,-14.761990756427103M61.02401010605919,-15.187745048092388L76.98224531229666,-3.0970182642630846M61.02401305641956,-15.187745533428325L60.385176284791264,-14.76199121638611" style="fill:none;stroke:rgb(0,0,0);stroke-width:1;stroke-linecap:round"></path><path d="M60.38517628479127,-12.81311009482194L53.816817999470814,-13.31048407933139L61.02401305641958,-13.23886441186416z" style="fill:rgb(153,221,255); fill-opacity: 0.4"></path><path d="M109.9362332757896,-0.5559915999410759L111.53332520486036,-1.6203773925466205L130.57046190916736,-3.6375981909589394zM111.53332520486036,-6.4925801964570375L109.9362332757896,-0.5559915999410759L109.9362332757896,-5.428194403851492z" style="fill:rgb(255,187,187); fill-opacity: 0.4"></path><path d="M109.93623331188714,-5.428194401118089L109.93623331188714,-0.5559915972076734L111.5333252409579,-6.492580193723635zM53.816817999470814,-15.259365200895559L53.816817999470814,-13.31048407933139L60.38517628479127,-14.76199121638611z" style="fill:rgb(153,221,255); fill-opacity: 0.4"></path><path d="M61.02401304739519,-15.18774553411168L61.02401304739519,-13.238864412547512L60.38517627576688,-12.813110095505293z" style="fill:rgb(255,187,187); fill-opacity: 0.4"></path><path d="M60.38517628479127,-12.81311009482194L61.02401305641958,-13.23886441186416L61.02401305641958,-15.187745533428329zM53.816817999470814,-13.31048407933139L60.38517628479127,-12.81311009482194L60.38517628479127,-14.76199121638611z" style="fill:rgb(153,221,255); fill-opacity: 0.4"></path><path d="M111.53332520486036,-6.4925801964570375L109.9362332757896,-5.428194403851492L130.57046190916736,-3.6375981909589394z" style="fill:rgb(255,187,187); fill-opacity: 0.4"></path><path d="M109.93623412937198,-0.555991594737831L109.93623412937198,-5.428194630972981M109.93623412937198,-0.555991594737831L130.5704553664605,-3.637598692274586M109.93623331188712,-5.428194401118089L109.93623331188712,-0.5559915972076734" style="fill:none;stroke:rgb(0,0,0);stroke-width:1;stroke-linecap:round"></path><path d="M61.02401304739519,-15.18774553411168L60.38517627576688,-12.813110095505293L60.38517627576688,-14.761991217069461z" style="fill:rgb(255,187,187); fill-opacity: 0.4"></path><path d="M60.38517628479127,-14.76199121638611L60.38517628479127,-12.81311009482194L61.02401305641958,-15.187745533428329z" style="fill:rgb(153,221,255); fill-opacity: 0.4"></path><path d="M60.30987914967269,-32.6943748876916L62.52391869121738,-34.16992691409137L55.95556040589692,-34.667300898600814z" style="fill:rgb(238,238,238); fill-opacity: 0.4"></path><path d="M60.385173372508525,-12.813110564161871L60.385173372508525,-14.761990756427103M60.385173372508525,-12.813110564161871L76.98224531229666,-3.0970182642630846M60.385176284791264,-14.76199121638611L60.385176284791264,-12.81311009482194M60.385173372508525,-14.761990756427103L76.98224531229666,-3.0970182642630846" style="fill:none;stroke:rgb(0,0,0);stroke-width:1;stroke-linecap:round"></path><path d="M109.9362332757896,-5.428194403851492L109.9362332757896,-0.5559915999410759L130.57046190916736,-3.6375981909589394z" style="fill:rgb(255,187,187); fill-opacity: 0.4"></path><path d="M109.93623412937198,-5.428194630972981L130.5704553664605,-3.637598692274586M186.50565357842547,29.425475491656627L185.55803978852796,29.3537195937619M185.55803978852796,-22.934526565785067L185.55803978852796,29.3537195937619M185.55803978852796,29.3537195937619L168.27224784300483,40.8738775920903M164.83675519849345,-16.21945406882722L131.99496286817626,-18.706324059806214M131.99496286817626,-18.706324059806214L119.19480329067882,-10.17562664071704M186.50565357842547,-22.86277066789034L186.50565357842547,29.425475491656627M186.50565357842547,29.425475491656627L169.2198616329023,40.94563348998503" style="fill:none;stroke:rgb(0,0,0);stroke-width:1;stroke-linecap:round"></path><path d="M53.741520864352225,-33.191748872201046L60.30987914967269,-32.6943748876916L55.95556040589692,-34.667300898600814zM101.3788531089842,23.21447610742659L111.90636252012523,16.198391907903204L111.90636252012523,-15.917580840765135z" style="fill:rgb(238,238,238); fill-opacity: 0.4"></path><path d="M53.741520864352225,-33.19174887220105L60.30987914967268,-32.6943748876916M164.83675519849345,-16.21945406882722L164.83675519849345,22.829627733414345M164.83675519849345,22.829627733414345L152.03659562099602,31.36032515250352" style="fill:none;stroke:rgb(0,0,0);stroke-width:1;stroke-linecap:round"></path><path d="M61.02401304739519,-13.238864412547512L61.02401304739519,-15.18774553411168L76.98224813407016,-3.0970179067987296zM60.38517627576688,-12.813110095505293L61.02401304739519,-13.238864412547512L76.98224813407016,-3.0970179067987296zM61.02401304739519,-15.18774553411168L60.38517627576688,-14.761991217069461L76.98224813407016,-3.0970179067987296z" style="fill:rgb(255,187,187); fill-opacity: 0.4"></path><path d="M85.63292937884339,14.208895969865413L75.10541996770237,21.224980169388804L75.10541996770237,-10.890992579279537z" style="fill:rgb(238,238,238); fill-opacity: 0.4"></path><path d="M60.38517627576688,-14.761991217069461L60.38517627576688,-12.813110095505293L76.98224813407016,-3.0970179067987296z" style="fill:rgb(255,187,187); fill-opacity: 0.4"></path><path d="M101.3788531089842,-8.901496641241746L111.90636252012523,-15.917580840765135L85.63292937884339,-17.907076778802924zM186.50565357842547,29.425475491656627L185.55803978852796,29.3537195937619L185.55803978852796,-22.934526565785063zM164.83675519849345,-16.21945406882722L164.83675519849345,22.829627733414345L131.99496286817626,-18.706324059806214zM101.3788531089842,23.21447610742659L75.10541996770237,21.224980169388804L111.90636252012523,16.198391907903204zM119.19480329067885,28.87345516152452L131.99496286817626,20.342757742435346L164.83675519849345,22.829627733414345zM186.50565357842547,-22.86277066789034L186.50565357842547,29.425475491656627L185.55803978852796,-22.934526565785063zM131.99496286817626,-18.706324059806214L131.99496286817626,20.342757742435346L119.19480329067885,-10.17562664071704z" style="fill:rgb(238,238,238); fill-opacity: 0.4"></path><path d="M75.10541996770237,-10.890992579279537L75.10541996770237,21.224980169388804M75.10541996770237,21.224980169388804L101.3788531089842,23.214476107426595M164.83675519849345,-16.21945406882722L152.03659562099602,-7.688756649738043" style="fill:none;stroke:rgb(0,0,0);stroke-width:1;stroke-linecap:round"></path><path d="M75.10541996770237,-10.890992579279537L101.3788531089842,-8.901496641241746L85.63292937884339,-17.907076778802924z" style="fill:rgb(238,238,238); fill-opacity: 0.4"></path><path d="M186.50565357842547,-22.86277066789034L185.55803978852796,-22.934526565785067M185.55803978852796,-22.934526565785067L168.27224784300483,-11.41436856745667M186.50565357842547,-22.86277066789034L169.2198616329023,-11.342612669561944" style="fill:none;stroke:rgb(0,0,0);stroke-width:1;stroke-linecap:round"></path><path d="M101.3788531089842,-8.901496641241746L101.3788531089842,23.21447610742659L111.90636252012523,-15.917580840765135z" style="fill:rgb(238,238,238); fill-opacity: 0.4"></path><path d="M158.436706187923,6.238953441731299L125.59491385760576,3.752083450752303M125.59491385760576,0.8287617684060528L125.59491385760576,3.752083450752303M125.59491385760576,3.752083450752303L124.63665870016331,4.3907149263156295M158.436706187923,3.315631759385049L125.59491385760576,0.8287617684060528M125.59491385760576,0.8287617684060528L124.63665870016331,1.4673932439693795" style="fill:none;stroke:rgb(0,0,0);stroke-width:1;stroke-linecap:round"></path><path d="M125.59491385760579,0.828761768406052L125.59491385760579,3.752083450752302L124.63665870016332,1.4673932439693786zM125.59491385760579,3.752083450752302L124.63665870016332,4.390714926315628L124.63665870016332,1.4673932439693786z" style="fill:rgb(153,221,255); fill-opacity: 0.4"></path><path d="M168.2722478430048,40.8738775920903L185.55803978852796,29.3537195937619L186.50565357842547,29.425475491656627z" style="fill:rgb(238,238,238); fill-opacity: 0.4"></path><path d="M124.63665870016331,1.4673932439693795L124.63665870016331,4.3907149263156295M124.63665870016331,4.3907149263156295L157.47845103048053,6.877584917294626" style="fill:none;stroke:rgb(0,0,0);stroke-width:1;stroke-linecap:round"></path><path d="M152.03659562099605,31.36032515250352L164.83675519849345,22.829627733414345L164.83675519849345,-16.21945406882722z" style="fill:rgb(238,238,238); fill-opacity: 0.4"></path><path d="M124.63665870016331,1.4673932439693795L157.47845103048053,3.9542632349483755M75.10541996770237,-10.890992579279537L101.3788531089842,-8.901496641241746" style="fill:none;stroke:rgb(0,0,0);stroke-width:1;stroke-linecap:round"></path><path d="M158.436706187923,6.238953441731299L125.59491385760579,3.752083450752302L125.59491385760579,0.828761768406052z" style="fill:rgb(153,221,255); fill-opacity: 0.4"></path><path d="M75.10541996770237,-10.890992579279537L75.10541996770237,21.224980169388804L101.3788531089842,-8.901496641241746zM131.99496286817626,20.342757742435346L119.19480329067885,28.87345516152452L119.19480329067885,-10.17562664071704z" style="fill:rgb(238,238,238); fill-opacity: 0.4"></path><path d="M124.63665870016332,4.390714926315628L125.59491385760579,3.752083450752302L158.436706187923,6.238953441731299z" style="fill:rgb(153,221,255); fill-opacity: 0.4"></path><path d="M75.10541996770237,21.224980169388804L101.3788531089842,23.21447610742659L101.3788531089842,-8.901496641241746z" style="fill:rgb(238,238,238); fill-opacity: 0.4"></path><path d="M101.3788531089842,-8.901496641241746L101.3788531089842,23.214476107426595" style="fill:none;stroke:rgb(0,0,0);stroke-width:1;stroke-linecap:round"></path><path d="M152.03659562099605,-7.688756649738043L164.83675519849345,-16.21945406882722L131.99496286817626,-18.706324059806214z" style="fill:rgb(238,238,238); fill-opacity: 0.4"></path><path d="M124.63665870016332,1.4673932439693786L157.47845103048053,3.9542632349483764L125.59491385760579,0.828761768406052z" style="fill:rgb(153,221,255); fill-opacity: 0.4"></path><path d="M169.2198616329023,40.94563348998503L186.50565357842547,29.425475491656627L186.50565357842547,-22.86277066789034z" style="fill:rgb(238,238,238); fill-opacity: 0.4"></path><path d="M124.63665870016332,1.4673932439693786L124.63665870016332,4.390714926315628L157.47845103048053,3.9542632349483764zM158.436706187923,3.315631759385049L158.436706187923,6.238953441731299L125.59491385760579,0.828761768406052z" style="fill:rgb(153,221,255); fill-opacity: 0.4"></path><path d="M152.03659562099605,31.36032515250352L119.19480329067885,28.87345516152452L164.83675519849345,22.829627733414345z" style="fill:rgb(238,238,238); fill-opacity: 0.4"></path><path d="M157.47845103048053,3.9542632349483764L158.436706187923,3.315631759385049L125.59491385760579,0.828761768406052zM157.47845103048053,6.877584917294625L124.63665870016332,4.390714926315628L158.436706187923,6.238953441731299zM124.63665870016332,4.390714926315628L157.47845103048053,6.877584917294625L157.47845103048053,3.9542632349483764z" style="fill:rgb(153,221,255); fill-opacity: 0.4"></path><path d="M185.55803978852796,-22.934526565785063L185.55803978852796,29.3537195937619L168.2722478430048,-11.414368567456666z" style="fill:rgb(238,238,238); fill-opacity: 0.4"></path><path d="M158.43670382894194,3.3156317548824807L158.43670382894194,6.238953321066363M158.43670382894194,6.238953321066363L157.4784486600534,6.877584804257951M158.43670382894194,6.238953321066363L176.74195942614318,5.664808612814699M158.436706187923,3.315631759385049L158.436706187923,6.238953441731299M158.436706187923,6.238953441731299L157.47845103048053,6.877584917294626M158.43670382894194,3.3156317548824807L157.4784486600534,3.9542632380740668M158.43670382894194,3.3156317548824807L176.74195942614318,5.664808612814699M158.436706187923,3.315631759385049L157.47845103048053,3.9542632349483755" style="fill:none;stroke:rgb(0,0,0);stroke-width:1;stroke-linecap:round"></path><path d="M158.4367056909436,3.3156317217524145L158.4367056909436,6.238953404098664L157.47845053350116,6.87758487966199z" style="fill:rgb(255,187,187); fill-opacity: 0.4"></path><path d="M157.47845103048053,6.877584917294625L158.436706187923,6.238953441731299L158.436706187923,3.315631759385049z" style="fill:rgb(153,221,255); fill-opacity: 0.4"></path><path d="M158.4367056909436,3.3156317217524145L157.47845053350116,6.87758487966199L157.47845053350116,3.9542631973157403z" style="fill:rgb(255,187,187); fill-opacity: 0.4"></path><path d="M157.47845103048053,3.9542632349483764L157.47845103048053,6.877584917294625L158.436706187923,3.315631759385049z" style="fill:rgb(153,221,255); fill-opacity: 0.4"></path><path d="M157.4784486600534,6.877584804257951L157.4784486600534,3.9542632380740668M157.4784486600534,6.877584804257951L176.74195942614318,5.664808612814699M157.47845103048053,3.9542632349483755L157.47845103048053,6.877584917294626M119.19480329067882,-10.17562664071704L119.19480329067882,28.87345516152452M119.19480329067882,28.87345516152452L152.03659562099602,31.36032515250352" style="fill:none;stroke:rgb(0,0,0);stroke-width:1;stroke-linecap:round"></path><path d="M158.4367056909436,6.238953404098664L158.4367056909436,3.3156317217524145L176.74196125681365,5.664808732383521z" style="fill:rgb(255,187,187); fill-opacity: 0.4"></path><path d="M119.19480329067885,-10.17562664071704L152.03659562099605,-7.688756649738043L131.99496286817626,-18.706324059806214z" style="fill:rgb(238,238,238); fill-opacity: 0.4"></path><path d="M157.4784486600534,3.9542632380740668L176.74195942614318,5.664808612814699" style="fill:none;stroke:rgb(0,0,0);stroke-width:1;stroke-linecap:round"></path><path d="M169.2198616329023,-11.342612669561944L186.50565357842547,-22.86277066789034L185.55803978852796,-22.934526565785063z" style="fill:rgb(238,238,238); fill-opacity: 0.4"></path><path d="M157.47845053350116,6.87758487966199L158.4367056909436,6.238953404098664L176.74196125681365,5.664808732383521zM158.4367056909436,3.3156317217524145L157.47845053350116,3.9542631973157403L176.74196125681365,5.664808732383521zM157.47845053350116,3.9542631973157403L157.47845053350116,6.87758487966199L176.74196125681365,5.664808732383521z" style="fill:rgb(255,187,187); fill-opacity: 0.4"></path><path d="M152.03659562099605,-7.688756649738043L152.03659562099605,31.36032515250352L164.83675519849345,-16.21945406882722zM169.2198616329023,40.94563348998503L168.2722478430048,40.8738775920903L186.50565357842547,29.425475491656627z" style="fill:rgb(238,238,238); fill-opacity: 0.4"></path><path d="M119.19480329067882,-10.17562664071704L152.03659562099602,-7.688756649738043" style="fill:none;stroke:rgb(0,0,0);stroke-width:1;stroke-linecap:round"></path><path d="M185.55803978852796,29.3537195937619L168.2722478430048,40.8738775920903L168.2722478430048,-11.414368567456666zM119.19480329067885,-10.17562664071704L119.19480329067885,28.87345516152452L152.03659562099605,-7.688756649738043zM119.19480329067885,28.87345516152452L152.03659562099605,31.36032515250352L152.03659562099605,-7.688756649738043z" style="fill:rgb(238,238,238); fill-opacity: 0.4"></path><path d="M152.03659562099602,-7.688756649738043L152.03659562099602,31.36032515250352" style="fill:none;stroke:rgb(0,0,0);stroke-width:1;stroke-linecap:round"></path><path d="M169.2198616329023,-11.342612669561944L169.2198616329023,40.94563348998503L186.50565357842547,-22.86277066789034zM168.2722478430048,-11.414368567456666L169.2198616329023,-11.342612669561944L185.55803978852796,-22.934526565785063z" style="fill:rgb(238,238,238); fill-opacity: 0.4"></path><path d="M168.27224784300483,-11.41436856745667L168.27224784300483,40.8738775920903M168.27224784300483,40.8738775920903L169.2198616329023,40.94563348998503M169.2198616329023,-11.342612669561944L169.2198616329023,40.94563348998503" style="fill:none;stroke:rgb(0,0,0);stroke-width:1;stroke-linecap:round"></path><path d="M168.2722478430048,40.8738775920903L169.2198616329023,40.94563348998503L169.2198616329023,-11.342612669561944zM168.2722478430048,-11.414368567456666L168.2722478430048,40.8738775920903L169.2198616329023,-11.342612669561944z" style="fill:rgb(238,238,238); fill-opacity: 0.4"></path><path d="M168.27224784300483,-11.41436856745667L169.2198616329023,-11.342612669561944" style="fill:none;stroke:rgb(0,0,0);stroke-width:1;stroke-linecap:round"></path></svg>