<svg viewBox="-840 -469.5 1680 939" width="1680" height="939" style="background-color: rgb(255, 255, 255);" xmlns="http://www.w3.org/2000/svg"><path d="M-81.7961155975435,0.5043021001636198L-95.14657650781821,-0.8126819626720093M-95.14657650781821,-51.45235281352427L-95.14657650781821,-0.8126819626720093M-95.14657650781821,-0.8126819626720093L-109.72481239448081,17.566222984946318M-81.7961155975435,-50.13536875068864L-81.7961155975435,0.5043021001636198M-81.7961155975435,0.5043021001636198L-96.3743514842061,18.883207047781948" style="fill:none;stroke:rgb(0,0,0);stroke-width:1;stroke-linecap:round"></path><path d="M-81.7961155975435,0.5043021001636198L-95.14657650781821,-0.8126819626720077L-95.14657650781821,-51.45235281352427zM-81.7961155975435,-50.13536875068865L-81.7961155975435,0.5043021001636198L-95.14657650781821,-51.45235281352427z" style="fill:rgb(238,238,238); fill-opacity: 0.4"></path><path d="M-31.050832416099873,1.510962885126471L-64.42698561020568,-1.7814973625619586M-64.42698561020566,-39.28026339455334L-64.42698561020568,-1.7814973625619586M-64.42698561020568,-1.7814973625619586L-75.22219512653966,11.828114330704988" style="fill:none;stroke:rgb(0,0,0);stroke-width:1;stroke-linecap:round"></path><path d="M-109.72481239448084,17.56622298494632L-95.14657650781821,-0.8126819626720077L-81.7961155975435,0.5043021001636198z" style="fill:rgb(238,238,238); fill-opacity: 0.4"></path><path d="M-81.7961155975435,-50.13536875068864L-95.14657650781821,-51.45235281352427M-95.14657650781821,-51.45235281352427L-109.72481239448081,-33.07344786590595M-81.7961155975435,-50.13536875068864L-96.3743514842061,-31.756463803070318M-88.22625152879075,2.169994595210222L-101.57671243906545,0.8530105323745943M-101.57671243906543,-9.44027899092157L-101.57671243906545,0.8530105323745943M-101.57671243906545,0.8530105323745943L-104.53996240098337,4.588804753947656" style="fill:none;stroke:rgb(0,0,0);stroke-width:1;stroke-linecap:round"></path><path d="M-31.050832416099873,1.510962885126471L-64.42698561020566,-1.7814973625619595L-64.42698561020566,-39.28026339455334z" style="fill:rgb(238,238,238); fill-opacity: 0.4"></path><path d="M-31.050832416099873,-35.987803146864906L-31.050832416099873,1.510962885126471M-31.050832416099873,1.510962885126471L-41.84604193243386,15.120574578393416" style="fill:none;stroke:rgb(0,0,0);stroke-width:1;stroke-linecap:round"></path><path d="M-96.3743514842061,18.883207047781944L-81.7961155975435,0.5043021001636198L-81.7961155975435,-50.13536875068865z" style="fill:rgb(238,238,238); fill-opacity: 0.4"></path><path d="M-88.22625152879075,2.169994595210222L-101.57671243906545,0.8530105323745943L-101.57671243906545,-9.440278990921568z" style="fill:rgb(153,221,255); fill-opacity: 0.4"></path><path d="M-88.22625152879075,-8.123294928085942L-88.22625152879075,2.169994595210222M-88.22625152879075,2.169994595210222L-91.18950149070868,5.905788816783284M-88.22625014485827,-8.123294937789458L-88.22625014485827,2.169994585506707M-88.22625014485827,2.169994585506707L-91.18950004254948,5.905788726108609M-88.22625014485827,2.169994585506707L-70.28565664070109,-2.9759678383590575M-88.22625152879075,-8.123294928085942L-101.57671243906543,-9.44027899092157M-101.57671243906543,-9.44027899092157L-104.53996240098337,-5.7044847693485075" style="fill:none;stroke:rgb(0,0,0);stroke-width:1;stroke-linecap:round"></path><path d="M-104.53996240098337,4.588804753947658L-101.57671243906545,0.8530105323745943L-88.22625152879075,2.169994595210222zM-88.22625152879075,-8.12329492808594L-88.22625152879075,2.169994595210222L-101.57671243906545,-9.440278990921568z" style="fill:rgb(153,221,255); fill-opacity: 0.4"></path><path d="M-95.14657650781821,-51.45235281352427L-95.14657650781821,-0.8126819626720077L-109.72481239448084,-33.07344786590595z" style="fill:rgb(238,238,238); fill-opacity: 0.4"></path><path d="M-101.57671243906545,-9.440278990921568L-101.57671243906545,0.8530105323745943L-104.53996240098337,-5.704484769348506z" style="fill:rgb(153,221,255); fill-opacity: 0.4"></path><path d="M-88.22625152879075,-8.123294928085942L-91.18950149070866,-4.38750070651288M-88.22625014485827,-8.123294937789458L-91.18950004254948,-4.387500797187554M-88.22625014485827,-8.123294937789458L-70.28565664070109,-2.9759678383590575M-31.050832416099873,-35.987803146864906L-64.42698561020566,-39.28026339455334M-64.42698561020566,-39.28026339455334L-75.22219512653966,-25.67065170128639" style="fill:none;stroke:rgb(0,0,0);stroke-width:1;stroke-linecap:round"></path><path d="M-101.57671243906545,0.8530105323745943L-104.53996240098337,4.588804753947658L-104.53996240098337,-5.704484769348506z" style="fill:rgb(153,221,255); fill-opacity: 0.4"></path><path d="M-88.22625154713317,-8.123294929895367L-88.22625154713317,2.1699945934007947L-91.18950150905111,5.905788814973858z" style="fill:rgb(255,187,187); fill-opacity: 0.4"></path><path d="M-91.18950149070868,5.905788816783285L-88.22625152879075,2.169994595210222L-88.22625152879075,-8.12329492808594z" style="fill:rgb(153,221,255); fill-opacity: 0.4"></path><path d="M-75.22219512653966,11.828114330704988L-64.42698561020566,-1.7814973625619595L-31.050832416099873,1.510962885126471zM-31.050832416099873,-35.987803146864906L-31.050832416099873,1.510962885126471L-64.42698561020566,-39.28026339455334z" style="fill:rgb(238,238,238); fill-opacity: 0.4"></path><path d="M-91.18950149070868,5.905788816783285L-104.53996240098337,4.588804753947658L-88.22625152879075,2.169994595210222z" style="fill:rgb(153,221,255); fill-opacity: 0.4"></path><path d="M-88.22625154713317,2.1699945934007947L-88.22625154713317,-8.123294929895367L-70.28565804992077,-2.9759683444178564z" style="fill:rgb(255,187,187); fill-opacity: 0.4"></path><path d="M-91.18950149070868,-4.387500706512879L-88.22625152879075,-8.12329492808594L-101.57671243906545,-9.440278990921568z" style="fill:rgb(153,221,255); fill-opacity: 0.4"></path><path d="M-104.53996240098337,-5.7044847693485075L-104.53996240098337,4.588804753947656M-104.53996240098337,4.588804753947656L-91.18950149070868,5.905788816783284" style="fill:none;stroke:rgb(0,0,0);stroke-width:1;stroke-linecap:round"></path><path d="M-96.3743514842061,18.883207047781944L-109.72481239448084,17.56622298494632L-81.7961155975435,0.5043021001636198z" style="fill:rgb(238,238,238); fill-opacity: 0.4"></path><path d="M-91.18950150905111,5.905788814973858L-88.22625154713317,2.1699945934007947L-70.28565804992077,-2.9759683444178564z" style="fill:rgb(255,187,187); fill-opacity: 0.4"></path><path d="M13.952395494347975,3.924194604440019L-12.748526326201418,1.2902264787687643M-12.748526326201416,-29.55068686437144L-12.748526326201418,1.2902264787687643M-12.748526326201418,1.2902264787687643L-21.62706171401291,12.48347093133945" style="fill:none;stroke:rgb(0,0,0);stroke-width:1;stroke-linecap:round"></path><path d="M-104.53996240098337,-5.704484769348506L-91.18950149070868,-4.387500706512879L-101.57671243906545,-9.440278990921568z" style="fill:rgb(153,221,255); fill-opacity: 0.4"></path><path d="M-88.22625154713317,-8.123294929895367L-91.18950150905111,5.905788814973858L-91.18950150905111,-4.387500708322306z" style="fill:rgb(255,187,187); fill-opacity: 0.4"></path><path d="M-91.18950149070868,-4.387500706512879L-91.18950149070868,5.905788816783285L-88.22625152879075,-8.12329492808594z" style="fill:rgb(153,221,255); fill-opacity: 0.4"></path><path d="M-91.18950149070866,-4.38750070651288L-91.18950149070868,5.905788816783284M-91.18950004254948,5.905788726108609L-91.18950004254948,-4.387500797187554M-91.18950004254948,5.905788726108609L-70.28565664070109,-2.9759678383590575" style="fill:none;stroke:rgb(0,0,0);stroke-width:1;stroke-linecap:round"></path><path d="M-104.53996240098337,4.588804753947658L-91.18950149070868,5.905788816783285L-91.18950149070868,-4.387500706512879z" style="fill:rgb(153,221,255); fill-opacity: 0.4"></path><path d="M-88.22625154713317,-8.123294929895367L-91.18950150905111,-4.387500708322306L-70.28565804992077,-2.9759683444178564z" style="fill:rgb(255,187,187); fill-opacity: 0.4"></path><path d="M-104.53996240098337,-5.704484769348506L-104.53996240098337,4.588804753947658L-91.18950149070868,-4.387500706512879z" style="fill:rgb(153,221,255); fill-opacity: 0.4"></path><path d="M-96.3743514842061,-31.756463803070318L-81.7961155975435,-50.13536875068865L-95.14657650781821,-51.45235281352427z" style="fill:rgb(238,238,238); fill-opacity: 0.4"></path><path d="M-104.53996240098337,-5.7044847693485075L-91.18950149070866,-4.38750070651288M-35.43193780575184,-10.392769658127403L-68.80809099985764,-13.685229905815833M-68.80809099985764,-18.363997870950453L-68.80809099985764,-13.685229905815833M-68.80809099985764,-13.685229905815833L-70.15502280072943,-11.987141623282625" style="fill:none;stroke:rgb(0,0,0);stroke-width:1;stroke-linecap:round"></path><path d="M-64.42698561020566,-39.28026339455334L-64.42698561020566,-1.7814973625619595L-75.22219512653966,-25.67065170128639zM-95.14657650781821,-0.8126819626720077L-109.72481239448084,17.56622298494632L-109.72481239448084,-33.07344786590595z" style="fill:rgb(238,238,238); fill-opacity: 0.4"></path><path d="M-91.18950150905111,-4.387500708322306L-91.18950150905111,5.905788814973858L-70.28565804992077,-2.9759683444178564z" style="fill:rgb(255,187,187); fill-opacity: 0.4"></path><path d="M-91.18950004254948,-4.387500797187554L-70.28565664070109,-2.9759678383590575M-31.050832416099873,-35.987803146864906L-41.84604193243386,-22.37819145359796M-35.43193780575184,-15.07153762326202L-68.80809099985764,-18.363997870950453M-68.80809099985764,-18.363997870950453L-70.15502280072943,-16.665909588417243" style="fill:none;stroke:rgb(0,0,0);stroke-width:1;stroke-linecap:round"></path><path d="M-68.80809099985764,-18.363997870950453L-68.80809099985764,-13.685229905815834L-70.15502280072943,-16.665909588417243z" style="fill:rgb(153,221,255); fill-opacity: 0.4"></path><path d="M13.952395494347975,3.924194604440019L-12.748526326201416,1.2902264787687643L-12.748526326201414,-29.55068686437144z" style="fill:rgb(238,238,238); fill-opacity: 0.4"></path><path d="M-35.43193780575184,-10.392769658127403L-68.80809099985764,-13.685229905815834L-68.80809099985764,-18.363997870950453zM-68.80809099985764,-13.685229905815834L-70.15502280072943,-11.987141623282625L-70.15502280072943,-16.665909588417243z" style="fill:rgb(153,221,255); fill-opacity: 0.4"></path><path d="M13.952395494347975,-26.916718738700187L13.952395494347975,3.924194604440019M13.952395494347975,3.924194604440019L5.073860106536479,15.117439057010703" style="fill:none;stroke:rgb(0,0,0);stroke-width:1;stroke-linecap:round"></path><path d="M-41.84604193243386,15.120574578393416L-31.050832416099873,1.510962885126471L-31.050832416099873,-35.987803146864906z" style="fill:rgb(238,238,238); fill-opacity: 0.4"></path><path d="M-70.15502280072943,-11.987141623282625L-68.80809099985764,-13.685229905815834L-35.43193780575184,-10.392769658127403z" style="fill:rgb(153,221,255); fill-opacity: 0.4"></path><path d="M-70.15502280072943,-16.665909588417243L-70.15502280072943,-11.987141623282625M-70.15502280072943,-11.987141623282625L-36.77886960662362,-8.694681375594191M-70.15502280072943,-16.665909588417243L-36.77886960662362,-13.373449340728811" style="fill:none;stroke:rgb(0,0,0);stroke-width:1;stroke-linecap:round"></path><path d="M-35.43193780575184,-15.071537623262024L-35.43193780575184,-10.392769658127403L-68.80809099985764,-18.363997870950453z" style="fill:rgb(153,221,255); fill-opacity: 0.4"></path><path d="M-64.42698561020566,-1.7814973625619595L-75.22219512653966,11.828114330704988L-75.22219512653966,-25.67065170128639z" style="fill:rgb(238,238,238); fill-opacity: 0.4"></path><path d="M-70.15502280072943,-16.665909588417243L-36.77886960662363,-13.373449340728811L-68.80809099985764,-18.363997870950453zM-70.15502280072943,-16.665909588417243L-70.15502280072943,-11.987141623282625L-36.77886960662363,-13.373449340728811z" style="fill:rgb(153,221,255); fill-opacity: 0.4"></path><path d="M13.952395494347975,-26.916718738700187L-12.748526326201416,-29.55068686437144M-12.748526326201416,-29.55068686437144L-21.62706171401291,-18.357442411800754" style="fill:none;stroke:rgb(0,0,0);stroke-width:1;stroke-linecap:round"></path><path d="M-41.84604193243386,15.120574578393416L-75.22219512653966,11.828114330704988L-31.050832416099873,1.510962885126471z" style="fill:rgb(238,238,238); fill-opacity: 0.4"></path><path d="M-35.431939565580315,-15.071537732448267L-35.431939565580315,-10.39276987886417M-35.431939565580315,-10.39276987886417L-36.7788713664521,-8.69468159633096M-35.431939565580315,-10.39276987886417L-16.90566595198137,-9.725747390387305M-35.43193780575184,-15.07153762326202L-35.43193780575184,-10.392769658127403M-35.43193780575184,-10.392769658127403L-36.77886960662362,-8.694681375594191" style="fill:none;stroke:rgb(0,0,0);stroke-width:1;stroke-linecap:round"></path><path d="M-36.77886960662363,-8.694681375594193L-70.15502280072943,-11.987141623282625L-35.43193780575184,-10.392769658127403zM-36.77886960662363,-13.373449340728811L-35.43193780575184,-15.071537623262024L-68.80809099985764,-18.363997870950453z" style="fill:rgb(153,221,255); fill-opacity: 0.4"></path><path d="M-21.62706171401291,12.483470931339449L-12.748526326201416,1.2902264787687643L13.952395494347975,3.924194604440019zM13.952395494347975,-26.916718738700187L13.952395494347975,3.924194604440019L-12.748526326201414,-29.55068686437144zM-96.3743514842061,-31.756463803070318L-96.3743514842061,18.883207047781944L-81.7961155975435,-50.13536875068865z" style="fill:rgb(238,238,238); fill-opacity: 0.4"></path><path d="M-109.72481239448081,-33.07344786590595L-109.72481239448081,17.566222984946318M-109.72481239448081,17.566222984946318L-96.3743514842061,18.883207047781948M-35.431939565580315,-15.071537732448267L-36.7788713664521,-13.373449449915057M-35.431939565580315,-15.071537732448267L-16.90566595198137,-9.725747390387305M-35.43193780575184,-15.07153762326202L-36.77886960662362,-13.373449340728811" style="fill:none;stroke:rgb(0,0,0);stroke-width:1;stroke-linecap:round"></path><path d="M-41.84604193243386,-22.37819145359796L-31.050832416099873,-35.987803146864906L-64.42698561020566,-39.28026339455334z" style="fill:rgb(238,238,238); fill-opacity: 0.4"></path><path d="M-35.43193831081745,-15.071537673085274L-35.43193831081745,-10.392769707950656L-36.77887011168924,-8.694681425417444z" style="fill:rgb(255,187,187); fill-opacity: 0.4"></path><path d="M-36.77886960662363,-8.694681375594193L-35.43193780575184,-10.392769658127403L-35.43193780575184,-15.071537623262024zM-70.15502280072943,-11.987141623282625L-36.77886960662363,-8.694681375594193L-36.77886960662363,-13.373449340728811z" style="fill:rgb(153,221,255); fill-opacity: 0.4"></path><path d="M-35.43193831081745,-10.392769707950656L-35.43193831081745,-15.071537673085274L-16.90566562071593,-9.725747359973687zM-35.43193831081745,-15.071537673085274L-36.77887011168924,-8.694681425417444L-36.77887011168924,-13.373449390552063z" style="fill:rgb(255,187,187); fill-opacity: 0.4"></path><path d="M-36.77886960662363,-13.373449340728811L-36.77886960662363,-8.694681375594193L-35.43193780575184,-15.071537623262024z" style="fill:rgb(153,221,255); fill-opacity: 0.4"></path><path d="M-36.77887011168924,-8.694681425417444L-35.43193831081745,-10.392769707950656L-16.90566562071593,-9.725747359973687z" style="fill:rgb(255,187,187); fill-opacity: 0.4"></path><path d="M-36.7788713664521,-8.69468159633096L-36.7788713664521,-13.373449449915057M-36.7788713664521,-8.69468159633096L-16.90566595198137,-9.725747390387305M-36.77886960662362,-13.373449340728811L-36.77886960662362,-8.694681375594191M-96.3743514842061,-31.756463803070318L-96.3743514842061,18.883207047781948" style="fill:none;stroke:rgb(0,0,0);stroke-width:1;stroke-linecap:round"></path><path d="M-35.43193831081745,-15.071537673085274L-36.77887011168924,-13.373449390552063L-16.90566562071593,-9.725747359973687z" style="fill:rgb(255,187,187); fill-opacity: 0.4"></path><path d="M-109.72481239448084,-33.07344786590595L-96.3743514842061,-31.756463803070318L-95.14657650781821,-51.45235281352427z" style="fill:rgb(238,238,238); fill-opacity: 0.4"></path><path d="M36.38262388837992,27.80161756150335L29.70739343324257,27.143125530085534M29.70739343324257,-37.49644269572654L29.70739343324257,27.143125530085534M29.70739343324257,27.143125530085534L27.840149467750077,29.497175747313626" style="fill:none;stroke:rgb(0,0,0);stroke-width:1;stroke-linecap:round"></path><path d="M-12.748526326201414,-29.55068686437144L-12.748526326201416,1.2902264787687643L-21.62706171401291,-18.357442411800754z" style="fill:rgb(238,238,238); fill-opacity: 0.4"></path><path d="M-75.22219512653966,-25.67065170128639L-75.22219512653966,11.828114330704988M-75.22219512653966,11.828114330704988L-41.84604193243386,15.120574578393416M-36.7788713664521,-13.373449449915057L-16.90566595198137,-9.725747390387305" style="fill:none;stroke:rgb(0,0,0);stroke-width:1;stroke-linecap:round"></path><path d="M-36.77887011168924,-13.373449390552063L-36.77887011168924,-8.694681425417444L-16.90566562071593,-9.725747359973687z" style="fill:rgb(255,187,187); fill-opacity: 0.4"></path><path d="M13.952395494347975,-26.916718738700187L5.07386010653648,-15.723474286129504M36.38262388837992,-36.83795066430873L36.38262388837992,27.80161756150335M36.38262388837992,27.80161756150335L34.515379922887426,30.15566777873144" style="fill:none;stroke:rgb(0,0,0);stroke-width:1;stroke-linecap:round"></path><path d="M27.840149467750077,29.497175747313626L29.70739343324257,27.143125530085534L36.38262388837992,27.80161756150335z" style="fill:rgb(238,238,238); fill-opacity: 0.4"></path><path d="M10.251305094146144,-12.403192973546455L-16.44961672640325,-15.03716109921771M-16.44961672640325,-17.84442187829848L-16.44961672640325,-15.03716109921771M-16.44961672640325,-15.03716109921771L-17.257775806926322,-14.018308129697784" style="fill:none;stroke:rgb(0,0,0);stroke-width:1;stroke-linecap:round"></path><path d="M5.073860106536479,15.117439057010703L13.952395494347975,3.924194604440019L13.952395494347975,-26.916718738700187z" style="fill:rgb(238,238,238); fill-opacity: 0.4"></path><path d="M10.251305094146144,-15.210453752627227L-16.44961672640325,-17.84442187829848M-16.44961672640325,-17.84442187829848L-17.257775806926322,-16.825568908778553" style="fill:none;stroke:rgb(0,0,0);stroke-width:1;stroke-linecap:round"></path><path d="M-109.72481239448084,17.56622298494632L-96.3743514842061,18.883207047781944L-96.3743514842061,-31.756463803070318z" style="fill:rgb(238,238,238); fill-opacity: 0.4"></path><path d="M-16.44961672640325,-17.844421878298483L-16.44961672640325,-15.03716109921771L-17.25777580692632,-16.825568908778557zM-16.44961672640325,-15.03716109921771L-17.25777580692632,-14.018308129697784L-17.25777580692632,-16.825568908778557z" style="fill:rgb(153,221,255); fill-opacity: 0.4"></path><path d="M34.515379922887426,30.15566777873144L27.840149467750077,29.497175747313626L36.38262388837992,27.80161756150335zM-75.22219512653966,-25.67065170128639L-41.84604193243386,-22.37819145359796L-64.42698561020566,-39.28026339455334z" style="fill:rgb(238,238,238); fill-opacity: 0.4"></path><path d="M10.251305094146144,-12.403192973546457L-16.44961672640325,-15.03716109921771L-16.44961672640325,-17.844421878298483z" style="fill:rgb(153,221,255); fill-opacity: 0.4"></path><path d="M-17.257775806926322,-16.825568908778553L-17.257775806926322,-14.018308129697784M-17.257775806926322,-14.018308129697784L9.443146013623071,-11.384340004026528" style="fill:none;stroke:rgb(0,0,0);stroke-width:1;stroke-linecap:round"></path><path d="M-17.25777580692632,-14.018308129697784L-16.44961672640325,-15.03716109921771L10.251305094146144,-12.403192973546457z" style="fill:rgb(153,221,255); fill-opacity: 0.4"></path><path d="M27.840149467750077,-35.14239247849845L27.840149467750077,29.497175747313626M27.840149467750077,29.497175747313626L34.515379922887426,30.15566777873144" style="fill:none;stroke:rgb(0,0,0);stroke-width:1;stroke-linecap:round"></path><path d="M-12.748526326201416,1.2902264787687643L-21.62706171401291,12.483470931339449L-21.62706171401291,-18.357442411800754zM-41.84604193243386,-22.37819145359796L-41.84604193243386,15.120574578393416L-31.050832416099873,-35.987803146864906z" style="fill:rgb(238,238,238); fill-opacity: 0.4"></path><path d="M-17.257775806926322,-16.825568908778553L9.443146013623071,-14.191600783107301M62.318498021085006,30.36011596227359L55.643267565947674,29.701623930855774M55.643267565947674,-34.93794429495631L55.643267565947674,29.701623930855774M55.643267565947674,29.701623930855774L53.77602360045517,32.05567414808387" style="fill:none;stroke:rgb(0,0,0);stroke-width:1;stroke-linecap:round"></path><path d="M5.073860106536479,15.117439057010703L-21.62706171401291,12.483470931339449L13.952395494347975,3.924194604440019z" style="fill:rgb(238,238,238); fill-opacity: 0.4"></path><path d="M34.515379922887426,-34.483900447080636L34.515379922887426,30.15566777873144" style="fill:none;stroke:rgb(0,0,0);stroke-width:1;stroke-linecap:round"></path><path d="M-17.25777580692632,-16.825568908778557L9.443146013623071,-14.191600783107301L-16.44961672640325,-17.844421878298483z" style="fill:rgb(153,221,255); fill-opacity: 0.4"></path><path d="M111.785709202848,13.575165895575894L85.0847873822986,10.941197769904639M85.0847873822986,-19.899715573235564L85.0847873822986,10.941197769904639M85.0847873822986,10.941197769904639L76.2062519944871,22.134442222475325" style="fill:none;stroke:rgb(0,0,0);stroke-width:1;stroke-linecap:round"></path><path d="M10.251305094146144,-15.210453752627227L10.251305094146144,-12.403192973546457L-16.44961672640325,-17.844421878298483z" style="fill:rgb(153,221,255); fill-opacity: 0.4"></path><path d="M62.31849802108502,-34.279452263538495L62.318498021085006,30.36011596227359M62.318498021085006,30.36011596227359L60.451254055592514,32.71416617950168M35.25036392385453,16.503728980923384L28.575133468717176,15.845236949505571M28.575133468717176,13.0379761704248L28.575133468717176,15.845236949505571M28.575133468717176,15.845236949505571L27.766974388194104,16.8640899190255" style="fill:none;stroke:rgb(0,0,0);stroke-width:1;stroke-linecap:round"></path><path d="M-17.25777580692632,-16.825568908778557L-17.25777580692632,-14.018308129697784L9.443146013623071,-14.191600783107301z" style="fill:rgb(153,221,255); fill-opacity: 0.4"></path><path d="M36.38262388837992,27.80161756150335L29.70739343324257,27.143125530085534L29.70739343324257,-37.49644269572654zM5.07386010653648,-15.723474286129504L13.952395494347975,-26.916718738700187L-12.748526326201414,-29.55068686437144z" style="fill:rgb(238,238,238); fill-opacity: 0.4"></path><path d="M-41.84604193243386,-22.37819145359796L-41.84604193243386,15.120574578393416" style="fill:none;stroke:rgb(0,0,0);stroke-width:1;stroke-linecap:round"></path><path d="M9.443146013623071,-11.38434000402653L-17.25777580692632,-14.018308129697784L10.251305094146144,-12.403192973546457z" style="fill:rgb(153,221,255); fill-opacity: 0.4"></path><path d="M53.77602360045518,32.05567414808387L55.643267565947674,29.701623930855774L62.31849802108502,30.36011596227359z" style="fill:rgb(238,238,238); fill-opacity: 0.4"></path><path d="M35.25036392385453,16.503728980923384L28.575133468717176,15.845236949505571L28.575133468717176,13.0379761704248zM9.443146013623071,-14.191600783107301L10.251305094146144,-15.210453752627227L-16.44961672640325,-17.844421878298483z" style="fill:rgb(153,221,255); fill-opacity: 0.4"></path><path d="M35.25036392385453,13.696468201842613L28.575133468717176,13.0379761704248M28.575133468717176,13.0379761704248L27.766974388194104,14.056829139944726" style="fill:none;stroke:rgb(0,0,0);stroke-width:1;stroke-linecap:round"></path><path d="M-109.72481239448084,-33.07344786590595L-109.72481239448084,17.56622298494632L-96.3743514842061,-31.756463803070318z" style="fill:rgb(238,238,238); fill-opacity: 0.4"></path><path d="M10.251304774966796,-15.21045355753818L10.251304774966796,-12.403192778457408M10.251304774966796,-12.403192778457408L9.443145718528742,-11.384339839301667M10.251304774966796,-12.403192778457408L28.844036193295086,-5.555455090701225M10.251305094146144,-15.210453752627227L10.251305094146144,-12.403192973546455M10.251305094146144,-12.403192973546455L9.443146013623071,-11.384340004026528" style="fill:none;stroke:rgb(0,0,0);stroke-width:1;stroke-linecap:round"></path><path d="M27.766974388194104,16.8640899190255L28.575133468717176,15.845236949505571L35.25036392385453,16.503728980923384zM28.575133468717176,13.0379761704248L28.575133468717176,15.845236949505571L27.766974388194104,14.056829139944725z" style="fill:rgb(153,221,255); fill-opacity: 0.4"></path><path d="M35.25036392385453,13.696468201842613L35.25036392385453,16.503728980923384M35.25036392385453,16.503728980923384L34.44220484333145,17.52258195044331M35.25036367137007,13.696467481385723L35.25036367137007,16.503728260466495M35.25036367137007,16.503728260466495L34.44220457479032,17.522581250229212M35.25036367137007,16.503728260466495L54.106927810962034,1.1440430487615574" style="fill:none;stroke:rgb(0,0,0);stroke-width:1;stroke-linecap:round"></path><path d="M35.25036392385453,13.696468201842613L35.25036392385453,16.503728980923384L28.575133468717176,13.0379761704248zM-17.25777580692632,-14.018308129697784L9.443146013623071,-11.38434000402653L9.443146013623071,-14.191600783107301zM28.575133468717176,15.845236949505571L27.766974388194104,16.8640899190255L27.766974388194104,14.056829139944725z" style="fill:rgb(153,221,255); fill-opacity: 0.4"></path><path d="M10.251304774966796,-15.21045355753818L9.443145718528742,-14.191600618382436M10.251304774966796,-15.21045355753818L28.844036193295086,-5.555455090701225M10.251305094146144,-15.210453752627227L9.443146013623071,-14.191600783107301" style="fill:none;stroke:rgb(0,0,0);stroke-width:1;stroke-linecap:round"></path><path d="M-75.22219512653966,11.828114330704988L-41.84604193243386,15.120574578393416L-41.84604193243386,-22.37819145359796z" style="fill:rgb(238,238,238); fill-opacity: 0.4"></path><path d="M10.251305057461275,-15.210453756246082L10.251305057461275,-12.403192977165313L9.443145976938204,-11.384340007645385z" style="fill:rgb(255,187,187); fill-opacity: 0.4"></path><path d="M9.443146013623071,-11.38434000402653L10.251305094146144,-12.403192973546457L10.251305094146144,-15.210453752627227z" style="fill:rgb(153,221,255); fill-opacity: 0.4"></path><path d="M27.766974388194104,14.056829139944726L27.766974388194104,16.8640899190255M27.766974388194104,16.8640899190255L34.44220484333145,17.52258195044331M35.25036392385453,13.696468201842613L34.44220484333145,14.71532117136254M35.25036367137007,13.696467481385723L34.44220457479032,14.715320471148441M35.25036367137007,13.696467481385723L54.106927810962034,1.1440430487615574" style="fill:none;stroke:rgb(0,0,0);stroke-width:1;stroke-linecap:round"></path><path d="M34.44220484333145,17.522581950443314L27.766974388194104,16.8640899190255L35.25036392385453,16.503728980923384z" style="fill:rgb(153,221,255); fill-opacity: 0.4"></path><path d="M35.25036391468331,13.6964682009379L35.25036391468331,16.50372898001867L34.442204834160236,17.522581949538598z" style="fill:rgb(255,187,187); fill-opacity: 0.4"></path><path d="M34.44220484333145,17.522581950443314L35.25036392385453,16.503728980923384L35.25036392385453,13.696468201842613zM34.44220484333145,14.71532117136254L35.25036392385453,13.696468201842613L28.575133468717176,13.0379761704248z" style="fill:rgb(153,221,255); fill-opacity: 0.4"></path><path d="M34.515379922887426,30.15566777873144L36.38262388837992,27.80161756150335L36.38262388837992,-36.83795066430873z" style="fill:rgb(238,238,238); fill-opacity: 0.4"></path><path d="M27.766974388194104,14.056829139944725L34.44220484333145,14.71532117136254L28.575133468717176,13.0379761704248z" style="fill:rgb(153,221,255); fill-opacity: 0.4"></path><path d="M60.45125405559253,32.71416617950168L53.77602360045518,32.05567414808387L62.31849802108502,30.36011596227359z" style="fill:rgb(238,238,238); fill-opacity: 0.4"></path><path d="M10.251305057461275,-12.403192977165313L10.251305057461275,-15.210453756246082L28.84403553075027,-5.555455148181784z" style="fill:rgb(255,187,187); fill-opacity: 0.4"></path><path d="M29.70739343324257,27.143125530085534L27.840149467750077,29.497175747313626L27.840149467750077,-35.14239247849845z" style="fill:rgb(238,238,238); fill-opacity: 0.4"></path><path d="M-21.62706171401291,-18.357442411800754L-21.62706171401291,12.48347093133945M-21.62706171401291,12.48347093133945L5.073860106536479,15.117439057010703M27.766974388194104,14.056829139944726L34.44220484333145,14.71532117136254" style="fill:none;stroke:rgb(0,0,0);stroke-width:1;stroke-linecap:round"></path><path d="M10.251305057461275,-15.210453756246082L9.443145976938204,-11.384340007645385L9.443145976938204,-14.191600786726157z" style="fill:rgb(255,187,187); fill-opacity: 0.4"></path><path d="M9.443146013623071,-14.191600783107301L9.443146013623071,-11.38434000402653L10.251305094146144,-15.210453752627227zM27.766974388194104,14.056829139944725L27.766974388194104,16.8640899190255L34.44220484333145,14.71532117136254z" style="fill:rgb(153,221,255); fill-opacity: 0.4"></path><path d="M9.443145718528742,-11.384339839301667L9.443145718528742,-14.191600618382436M9.443145718528742,-11.384339839301667L28.844036193295086,-5.555455090701225M9.443146013623071,-14.191600783107301L9.443146013623071,-11.384340004026528" style="fill:none;stroke:rgb(0,0,0);stroke-width:1;stroke-linecap:round"></path><path d="M9.443145976938204,-11.384340007645385L10.251305057461275,-12.403192977165313L28.84403553075027,-5.555455148181784z" style="fill:rgb(255,187,187); fill-opacity: 0.4"></path><path d="M27.766974388194104,16.8640899190255L34.44220484333145,17.522581950443314L34.44220484333145,14.71532117136254z" style="fill:rgb(153,221,255); fill-opacity: 0.4"></path><path d="M-75.22219512653966,-25.67065170128639L-75.22219512653966,11.828114330704988L-41.84604193243386,-22.37819145359796z" style="fill:rgb(238,238,238); fill-opacity: 0.4"></path><path d="M35.25036391468331,13.6964682009379L34.442204834160236,17.522581949538598L34.442204834160236,14.715321170457827z" style="fill:rgb(255,187,187); fill-opacity: 0.4"></path><path d="M34.44220484333145,14.71532117136254L34.44220484333145,17.522581950443314L35.25036392385453,13.696468201842613z" style="fill:rgb(153,221,255); fill-opacity: 0.4"></path><path d="M34.44220484333145,14.71532117136254L34.44220484333145,17.52258195044331M34.44220457479032,17.522581250229212L34.44220457479032,14.715320471148441M34.44220457479032,17.522581250229212L54.106927810962034,1.1440430487615574M53.77602360045518,-32.58389407772822L53.77602360045517,32.05567414808387M53.77602360045517,32.05567414808387L60.451254055592514,32.71416617950168" style="fill:none;stroke:rgb(0,0,0);stroke-width:1;stroke-linecap:round"></path><path d="M10.251305057461275,-15.210453756246082L9.443145976938204,-14.191600786726157L28.84403553075027,-5.555455148181784z" style="fill:rgb(255,187,187); fill-opacity: 0.4"></path><path d="M9.443145718528742,-14.191600618382436L28.844036193295086,-5.555455090701225" style="fill:none;stroke:rgb(0,0,0);stroke-width:1;stroke-linecap:round"></path><path d="M9.443145976938204,-14.191600786726157L9.443145976938204,-11.384340007645385L28.84403553075027,-5.555455148181784z" style="fill:rgb(255,187,187); fill-opacity: 0.4"></path><path d="M34.44220457479032,14.715320471148441L54.106927810962034,1.1440430487615574" style="fill:none;stroke:rgb(0,0,0);stroke-width:1;stroke-linecap:round"></path><path d="M111.78570920284798,13.575165895575891L85.0847873822986,10.941197769904639L85.0847873822986,-19.899715573235568z" style="fill:rgb(238,238,238); fill-opacity: 0.4"></path><path d="M-75.22219512653966,-25.67065170128639L-41.84604193243386,-22.37819145359796M60.451254055592514,-31.9254020463104L60.451254055592514,32.71416617950168M-109.72481239448081,-33.07344786590595L-96.3743514842061,-31.756463803070318" style="fill:none;stroke:rgb(0,0,0);stroke-width:1;stroke-linecap:round"></path><path d="M35.25036391468331,16.50372898001867L35.25036391468331,13.6964682009379L54.10692807033197,1.1440430238603023z" style="fill:rgb(255,187,187); fill-opacity: 0.4"></path><path d="M111.785709202848,-17.265747447564312L111.785709202848,13.575165895575894M111.785709202848,13.575165895575894L102.9071738150365,24.768410348146578" style="fill:none;stroke:rgb(0,0,0);stroke-width:1;stroke-linecap:round"></path><path d="M62.31849802108502,30.36011596227359L55.643267565947674,29.701623930855774L55.643267565947674,-34.93794429495631zM27.840149467750077,29.497175747313626L34.515379922887426,30.15566777873144L34.515379922887426,-34.483900447080636z" style="fill:rgb(238,238,238); fill-opacity: 0.4"></path><path d="M34.442204834160236,17.522581949538598L35.25036391468331,16.50372898001867L54.10692807033197,1.1440430238603023z" style="fill:rgb(255,187,187); fill-opacity: 0.4"></path><path d="M165.3808426153747,20.888375185061523L132.00468942126892,17.595914937373095M132.00468942126892,-19.90285109461828L132.00468942126892,17.595914937373095M132.00468942126892,17.595914937373095L121.20947990493492,31.20552663064004M111.47110253238945,-3.3782815946669613L84.77018071184007,-6.0122497203382155M84.77018071184007,-10.691017685472834L84.77018071184007,-6.0122497203382155M84.77018071184007,-6.0122497203382155L83.42324891096828,-4.314161437805006" style="fill:none;stroke:rgb(0,0,0);stroke-width:1;stroke-linecap:round"></path><path d="M35.25036391468331,13.6964682009379L34.442204834160236,14.715321170457827L54.10692807033197,1.1440430238603023z" style="fill:rgb(255,187,187); fill-opacity: 0.4"></path><path d="M-21.62706171401291,-18.357442411800754L5.07386010653648,-15.723474286129504L-12.748526326201414,-29.55068686437144z" style="fill:rgb(238,238,238); fill-opacity: 0.4"></path><path d="M34.442204834160236,14.715321170457827L34.442204834160236,17.522581949538598L54.10692807033197,1.1440430238603023z" style="fill:rgb(255,187,187); fill-opacity: 0.4"></path><path d="M5.07386010653648,-15.723474286129504L5.073860106536479,15.117439057010703L13.952395494347975,-26.916718738700187zM36.38262388837992,-36.83795066430873L36.38262388837992,27.80161756150335L29.70739343324257,-37.49644269572654z" style="fill:rgb(238,238,238); fill-opacity: 0.4"></path><path d="M111.47110253238945,-8.05704955980158L84.77018071184007,-10.691017685472834M84.77018071184007,-10.691017685472834L83.42324891096828,-8.992929402939625" style="fill:none;stroke:rgb(0,0,0);stroke-width:1;stroke-linecap:round"></path><path d="M29.70739343324257,-37.49644269572654L29.70739343324257,27.143125530085534L27.840149467750077,-35.14239247849845z" style="fill:rgb(238,238,238); fill-opacity: 0.4"></path><path d="M84.77018071184006,-10.691017685472834L84.77018071184006,-6.012249720338216L83.42324891096828,-8.992929402939627zM111.47110253238944,-3.378281594666963L84.77018071184006,-6.012249720338216L84.77018071184006,-10.691017685472834z" style="fill:rgb(153,221,255); fill-opacity: 0.4"></path><path d="M60.45125405559253,32.71416617950168L62.31849802108502,30.36011596227359L62.31849802108502,-34.279452263538495zM55.643267565947674,29.701623930855774L53.77602360045518,32.05567414808387L53.77602360045518,-32.58389407772822z" style="fill:rgb(238,238,238); fill-opacity: 0.4"></path><path d="M5.07386010653648,-15.723474286129504L5.073860106536479,15.117439057010703" style="fill:none;stroke:rgb(0,0,0);stroke-width:1;stroke-linecap:round"></path><path d="M84.77018071184006,-6.012249720338216L83.42324891096828,-4.314161437805006L83.42324891096828,-8.992929402939627zM83.42324891096828,-4.314161437805006L84.77018071184006,-6.012249720338216L111.47110253238944,-3.378281594666963z" style="fill:rgb(153,221,255); fill-opacity: 0.4"></path><path d="M111.785709202848,-17.265747447564312L85.0847873822986,-19.899715573235564M85.0847873822986,-19.899715573235564L76.2062519944871,-8.706471120664881M83.42324891096828,-8.992929402939625L83.42324891096828,-4.314161437805006M83.42324891096828,-4.314161437805006L110.12417073151768,-1.680193312133751" style="fill:none;stroke:rgb(0,0,0);stroke-width:1;stroke-linecap:round"></path><path d="M76.2062519944871,22.13444222247532L85.0847873822986,10.941197769904639L111.78570920284798,13.575165895575891zM111.78570920284798,-17.265747447564312L111.78570920284798,13.575165895575891L85.0847873822986,-19.899715573235568z" style="fill:rgb(238,238,238); fill-opacity: 0.4"></path><path d="M187.01451508378133,26.808008409102637L186.05148289898582,26.713008090544548M186.05148289898582,-23.499304682645146L186.05148289898582,26.713008090544548M186.05148289898582,26.713008090544548L171.47324701232324,45.091913038162865" style="fill:none;stroke:rgb(0,0,0);stroke-width:1;stroke-linecap:round"></path><path d="M-21.62706171401291,12.483470931339449L5.073860106536479,15.117439057010703L5.07386010653648,-15.723474286129504z" style="fill:rgb(238,238,238); fill-opacity: 0.4"></path><path d="M187.01451508378133,-23.40430436408705L187.01451508378133,26.808008409102637M187.01451508378133,26.808008409102637L172.43627919711872,45.186913356720964" style="fill:none;stroke:rgb(0,0,0);stroke-width:1;stroke-linecap:round"></path><path d="M111.47110253238944,-8.057049559801582L111.47110253238944,-3.378281594666963L84.77018071184006,-10.691017685472834z" style="fill:rgb(153,221,255); fill-opacity: 0.4"></path><path d="M83.42324891096828,-8.992929402939625L110.12417073151768,-6.358961277268371" style="fill:none;stroke:rgb(0,0,0);stroke-width:1;stroke-linecap:round"></path><path d="M34.515379922887426,-34.483900447080636L34.515379922887426,30.15566777873144L36.38262388837992,-36.83795066430873zM53.77602360045518,32.05567414808387L60.45125405559253,32.71416617950168L60.45125405559253,-31.9254020463104zM-21.62706171401291,-18.357442411800754L-21.62706171401291,12.483470931339449L5.07386010653648,-15.723474286129504z" style="fill:rgb(238,238,238); fill-opacity: 0.4"></path><path d="M111.47110334680418,-8.057049800702073L111.47110334680418,-3.378281612466411M111.47110334680418,-3.378281612466411L110.12417154593238,-1.6801933299332004M111.47110334680418,-3.378281612466411L130.80330829262581,-4.829467736037512M111.47110253238945,-8.05704955980158L111.47110253238945,-3.3782815946669613M111.47110253238945,-3.3782815946669613L110.12417073151768,-1.680193312133751" style="fill:none;stroke:rgb(0,0,0);stroke-width:1;stroke-linecap:round"></path><path d="M83.42324891096828,-8.992929402939627L110.12417073151764,-6.358961277268373L84.77018071184006,-10.691017685472834z" style="fill:rgb(153,221,255); fill-opacity: 0.4"></path><path d="M27.840149467750077,-35.14239247849845L27.840149467750077,29.497175747313626L34.515379922887426,-34.483900447080636zM165.38084261537472,20.888375185061523L132.00468942126892,17.595914937373095L132.00468942126892,-19.90285109461828z" style="fill:rgb(238,238,238); fill-opacity: 0.4"></path><path d="M110.12417073151764,-1.6801933121337524L83.42324891096828,-4.314161437805006L111.47110253238944,-3.378281594666963zM110.12417073151764,-6.358961277268373L111.47110253238944,-8.057049559801582L84.77018071184006,-10.691017685472834zM83.42324891096828,-8.992929402939627L83.42324891096828,-4.314161437805006L110.12417073151764,-6.358961277268373z" style="fill:rgb(153,221,255); fill-opacity: 0.4"></path><path d="M-21.62706171401291,-18.357442411800754L5.07386010653648,-15.723474286129504" style="fill:none;stroke:rgb(0,0,0);stroke-width:1;stroke-linecap:round"></path><path d="M62.31849802108502,-34.279452263538495L62.31849802108502,30.36011596227359L55.643267565947674,-34.93794429495631z" style="fill:rgb(238,238,238); fill-opacity: 0.4"></path><path d="M36.38262388837992,-36.83795066430873L29.70739343324257,-37.49644269572654M29.70739343324257,-37.49644269572654L27.840149467750077,-35.14239247849845M165.3808426153747,-16.610390846929853L165.3808426153747,20.888375185061523M165.3808426153747,20.888375185061523L154.5856330990407,34.49798687832847M111.47110253238945,-8.05704955980158L110.12417073151768,-6.358961277268371M111.47110334680418,-8.057049800702073L110.12417154593238,-6.358961518168862M111.47110334680418,-8.057049800702073L130.80330829262581,-4.829467736037512" style="fill:none;stroke:rgb(0,0,0);stroke-width:1;stroke-linecap:round"></path><path d="M111.47110249570457,-8.057049563420437L111.47110249570457,-3.378281598285819L110.12417069483277,-1.6801933157526086z" style="fill:rgb(255,187,187); fill-opacity: 0.4"></path><path d="M110.12417073151764,-1.6801933121337524L111.47110253238944,-3.378281594666963L111.47110253238944,-8.057049559801582z" style="fill:rgb(153,221,255); fill-opacity: 0.4"></path><path d="M55.643267565947674,-34.93794429495631L55.643267565947674,29.701623930855774L53.77602360045518,-32.58389407772822z" style="fill:rgb(238,238,238); fill-opacity: 0.4"></path><path d="M111.47110249570457,-3.378281598285819L111.47110249570457,-8.057049563420437L130.80331492935792,-4.829467106871733z" style="fill:rgb(255,187,187); fill-opacity: 0.4"></path><path d="M83.42324891096828,-4.314161437805006L110.12417073151764,-1.6801933121337524L110.12417073151764,-6.358961277268373z" style="fill:rgb(153,221,255); fill-opacity: 0.4"></path><path d="M85.0847873822986,-19.899715573235568L85.0847873822986,10.941197769904639L76.2062519944871,-8.706471120664881z" style="fill:rgb(238,238,238); fill-opacity: 0.4"></path><path d="M36.38262388837992,-36.83795066430873L34.515379922887426,-34.483900447080636" style="fill:none;stroke:rgb(0,0,0);stroke-width:1;stroke-linecap:round"></path><path d="M110.12417069483277,-1.6801933157526086L111.47110249570457,-3.378281598285819L130.80331492935792,-4.829467106871733z" style="fill:rgb(255,187,187); fill-opacity: 0.4"></path><path d="M111.785709202848,-17.265747447564312L102.9071738150365,-6.072502994993626" style="fill:none;stroke:rgb(0,0,0);stroke-width:1;stroke-linecap:round"></path><path d="M111.47110249570457,-8.057049563420437L110.12417069483277,-1.6801933157526086L110.12417069483277,-6.358961280887229z" style="fill:rgb(255,187,187); fill-opacity: 0.4"></path><path d="M110.12417073151764,-6.358961277268373L110.12417073151764,-1.6801933121337524L111.47110253238944,-8.057049559801582z" style="fill:rgb(153,221,255); fill-opacity: 0.4"></path><path d="M187.01451508378133,26.808008409102637L186.05148289898582,26.713008090544548L186.05148289898582,-23.49930468264514z" style="fill:rgb(238,238,238); fill-opacity: 0.4"></path><path d="M110.12417154593238,-1.6801933299332004L110.12417154593238,-6.358961518168862M110.12417154593238,-1.6801933299332004L130.80330829262581,-4.829467736037512M110.12417073151768,-6.358961277268371L110.12417073151768,-1.680193312133751" style="fill:none;stroke:rgb(0,0,0);stroke-width:1;stroke-linecap:round"></path><path d="M111.47110249570457,-8.057049563420437L110.12417069483277,-6.358961280887229L130.80331492935792,-4.829467106871733z" style="fill:rgb(255,187,187); fill-opacity: 0.4"></path><path d="M34.515379922887426,-34.483900447080636L36.38262388837992,-36.83795066430873L29.70739343324257,-37.49644269572654z" style="fill:rgb(238,238,238); fill-opacity: 0.4"></path><path d="M61.05352976156134,-13.544562105465886L54.37829930642399,-14.2030541368837M54.37829930642399,-16.074561322937548L54.37829930642399,-14.2030541368837M54.37829930642399,-14.2030541368837L53.83952658607527,-13.523818823870418" style="fill:none;stroke:rgb(0,0,0);stroke-width:1;stroke-linecap:round"></path><path d="M110.12417069483277,-6.358961280887229L110.12417069483277,-1.6801933157526086L130.80331492935792,-4.829467106871733z" style="fill:rgb(255,187,187); fill-opacity: 0.4"></path><path d="M110.12417154593238,-6.358961518168862L130.80330829262581,-4.829467736037512M61.05352976156134,-15.416069291519737L54.37829930642399,-16.074561322937548M54.37829930642399,-16.074561322937548L53.83952658607527,-15.395326009924265" style="fill:none;stroke:rgb(0,0,0);stroke-width:1;stroke-linecap:round"></path><path d="M60.45125405559253,-31.9254020463104L60.45125405559253,32.71416617950168L62.31849802108502,-34.279452263538495zM102.90717381503649,24.768410348146574L111.78570920284798,13.575165895575891L111.78570920284798,-17.265747447564312z" style="fill:rgb(238,238,238); fill-opacity: 0.4"></path><path d="M61.05352976156134,-13.544562105465888L54.37829930642399,-14.2030541368837L54.37829930642399,-16.07456132293755z" style="fill:rgb(153,221,255); fill-opacity: 0.4"></path><path d="M27.840149467750077,-35.14239247849845L34.515379922887426,-34.483900447080636L29.70739343324257,-37.49644269572654z" style="fill:rgb(238,238,238); fill-opacity: 0.4"></path><path d="M54.37829930642399,-16.07456132293755L54.37829930642399,-14.2030541368837L53.83952658607529,-15.395326009924265zM53.83952658607529,-13.52381882387042L54.37829930642399,-14.2030541368837L61.05352976156134,-13.544562105465888zM54.37829930642399,-14.2030541368837L53.83952658607529,-13.52381882387042L53.83952658607529,-15.395326009924265zM61.05352976156134,-15.416069291519737L61.05352976156134,-13.544562105465888L54.37829930642399,-16.07456132293755z" style="fill:rgb(153,221,255); fill-opacity: 0.4"></path><path d="M53.77602360045518,-32.58389407772822L53.77602360045518,32.05567414808387L60.45125405559253,-31.9254020463104z" style="fill:rgb(238,238,238); fill-opacity: 0.4"></path><path d="M61.05352676547533,-15.416068900751352L61.05352676547533,-13.544562607101673M61.05352676547533,-13.544562607101673L60.514754077239964,-12.865327334573971M61.05352676547533,-13.544562607101673L77.78910073141407,-2.016288385797211M61.05352976156134,-15.416069291519737L61.05352976156134,-13.544562105465886M61.05352976156134,-13.544562105465886L60.514757041212626,-12.865326792452603M165.3808426153747,-16.610390846929853L132.00468942126892,-19.90285109461828M132.00468942126892,-19.90285109461828L121.20947990493492,-6.293239401351335M53.83952658607527,-15.395326009924265L53.83952658607527,-13.523818823870418M53.83952658607527,-13.523818823870418L60.514757041212626,-12.865326792452603" style="fill:none;stroke:rgb(0,0,0);stroke-width:1;stroke-linecap:round"></path><path d="M60.51475704121263,-12.865326792452604L53.83952658607529,-13.52381882387042L61.05352976156134,-13.544562105465888z" style="fill:rgb(153,221,255); fill-opacity: 0.4"></path><path d="M27.840149467750077,-35.14239247849845L34.515379922887426,-34.483900447080636M61.05352676547533,-15.416068900751352L60.514754077239964,-14.736833628223648M61.05352676547533,-15.416068900751352L77.78910073141407,-2.016288385797211M61.05352976156134,-15.416069291519737L60.514757041212626,-14.73683397850645" style="fill:none;stroke:rgb(0,0,0);stroke-width:1;stroke-linecap:round"></path><path d="M60.51475704121263,-14.73683397850645L61.05352976156134,-15.416069291519737L54.37829930642399,-16.07456132293755zM53.83952658607529,-15.395326009924265L60.51475704121263,-14.73683397850645L54.37829930642399,-16.07456132293755z" style="fill:rgb(153,221,255); fill-opacity: 0.4"></path><path d="M53.83952658607527,-15.395326009924265L60.514757041212626,-14.73683397850645" style="fill:none;stroke:rgb(0,0,0);stroke-width:1;stroke-linecap:round"></path><path d="M121.20947990493492,31.205526630640037L132.00468942126892,17.595914937373095L165.38084261537472,20.888375185061523z" style="fill:rgb(238,238,238); fill-opacity: 0.4"></path><path d="M61.05352975239011,-15.41606929242445L61.05352975239011,-13.544562106370604L60.51475703204141,-12.865326793357317z" style="fill:rgb(255,187,187); fill-opacity: 0.4"></path><path d="M60.51475704121263,-12.865326792452604L61.05352976156134,-13.544562105465888L61.05352976156134,-15.416069291519737zM53.83952658607529,-15.395326009924265L53.83952658607529,-13.52381882387042L60.51475704121263,-14.73683397850645z" style="fill:rgb(153,221,255); fill-opacity: 0.4"></path><path d="M165.38084261537472,-16.610390846929853L165.38084261537472,20.888375185061523L132.00468942126892,-19.90285109461828z" style="fill:rgb(238,238,238); fill-opacity: 0.4"></path><path d="M62.31849802108502,-34.279452263538495L55.643267565947674,-34.93794429495631M55.643267565947674,-34.93794429495631L53.77602360045518,-32.58389407772822" style="fill:none;stroke:rgb(0,0,0);stroke-width:1;stroke-linecap:round"></path><path d="M53.83952658607529,-13.52381882387042L60.51475704121263,-12.865326792452604L60.51475704121263,-14.73683397850645z" style="fill:rgb(153,221,255); fill-opacity: 0.4"></path><path d="M61.05352975239011,-15.41606929242445L60.51475703204141,-12.865326793357317L60.51475703204141,-14.736833979411164z" style="fill:rgb(255,187,187); fill-opacity: 0.4"></path><path d="M60.51475704121263,-14.73683397850645L60.51475704121263,-12.865326792452604L61.05352976156134,-15.416069291519737z" style="fill:rgb(153,221,255); fill-opacity: 0.4"></path><path d="M60.514754077239964,-12.865327334573971L60.514754077239964,-14.736833628223648M60.514754077239964,-12.865327334573971L77.78910073141407,-2.016288385797211M60.514757041212626,-14.73683397850645L60.514757041212626,-12.865326792452603" style="fill:none;stroke:rgb(0,0,0);stroke-width:1;stroke-linecap:round"></path><path d="M85.0847873822986,10.941197769904639L76.2062519944871,22.13444222247532L76.2062519944871,-8.706471120664881z" style="fill:rgb(238,238,238); fill-opacity: 0.4"></path><path d="M60.514754077239964,-14.736833628223648L77.78910073141407,-2.016288385797211" style="fill:none;stroke:rgb(0,0,0);stroke-width:1;stroke-linecap:round"></path><path d="M102.90717381503649,24.768410348146574L76.2062519944871,22.13444222247532L111.78570920284798,13.575165895575891z" style="fill:rgb(238,238,238); fill-opacity: 0.4"></path><path d="M62.31849802108502,-34.279452263538495L60.451254055592514,-31.9254020463104" style="fill:none;stroke:rgb(0,0,0);stroke-width:1;stroke-linecap:round"></path><path d="M187.01451508378133,-23.40430436408705L187.01451508378133,26.808008409102637L186.05148289898582,-23.49930468264514z" style="fill:rgb(238,238,238); fill-opacity: 0.4"></path><path d="M61.05352975239011,-13.544562106370604L61.05352975239011,-15.41606929242445L77.78910361749398,-2.0162879168702372zM60.51475703204141,-12.865326793357317L61.05352975239011,-13.544562106370604L77.78910361749398,-2.0162879168702372z" style="fill:rgb(255,187,187); fill-opacity: 0.4"></path><path d="M60.45125405559253,-31.9254020463104L62.31849802108502,-34.279452263538495L55.643267565947674,-34.93794429495631zM102.90717381503649,-6.072502994993628L111.78570920284798,-17.265747447564312L85.0847873822986,-19.899715573235568z" style="fill:rgb(238,238,238); fill-opacity: 0.4"></path><path d="M61.05352975239011,-15.41606929242445L60.51475703204141,-14.736833979411164L77.78910361749398,-2.0162879168702372zM60.51475703204141,-14.736833979411164L60.51475703204141,-12.865326793357317L77.78910361749398,-2.0162879168702372z" style="fill:rgb(255,187,187); fill-opacity: 0.4"></path><path d="M53.77602360045518,-32.58389407772822L60.45125405559253,-31.9254020463104L55.643267565947674,-34.93794429495631zM171.47324701232324,45.091913038162865L186.05148289898582,26.713008090544548L187.01451508378133,26.808008409102637zM132.00468942126892,-19.90285109461828L132.00468942126892,17.595914937373095L121.20947990493492,-6.293239401351336z" style="fill:rgb(238,238,238); fill-opacity: 0.4"></path><path d="M53.77602360045518,-32.58389407772822L60.451254055592514,-31.9254020463104M76.2062519944871,-8.706471120664881L76.2062519944871,22.134442222475325M76.2062519944871,22.134442222475325L102.9071738150365,24.768410348146578M165.3808426153747,-16.610390846929853L154.5856330990407,-3.000779153662905M187.01451508378133,-23.40430436408705L186.05148289898582,-23.499304682645146M186.05148289898582,-23.499304682645146L171.47324701232324,-5.1203997350268216M187.01451508378133,-23.40430436408705L172.43627919711872,-5.025399416468731" style="fill:none;stroke:rgb(0,0,0);stroke-width:1;stroke-linecap:round"></path><path d="M154.58563309904073,34.49798687832847L165.38084261537472,20.888375185061523L165.38084261537472,-16.610390846929853z" style="fill:rgb(238,238,238); fill-opacity: 0.4"></path><path d="M159.98326381445307,7.665165020407262L126.60711062034727,4.372704772718831M126.60711062034727,1.5654439936380589L126.60711062034727,4.372704772718831M126.60711062034727,4.372704772718831L125.79895153982419,5.391557742238756" style="fill:none;stroke:rgb(0,0,0);stroke-width:1;stroke-linecap:round"></path><path d="M76.2062519944871,-8.706471120664881L102.90717381503649,-6.072502994993628L85.0847873822986,-19.899715573235568z" style="fill:rgb(238,238,238); fill-opacity: 0.4"></path><path d="M159.98326381445307,4.85790424132649L126.60711062034727,1.5654439936380589M126.60711062034727,1.5654439936380589L125.79895153982419,2.5842969631579846" style="fill:none;stroke:rgb(0,0,0);stroke-width:1;stroke-linecap:round"></path><path d="M102.90717381503649,-6.072502994993628L102.90717381503649,24.768410348146574L111.78570920284798,-17.265747447564312z" style="fill:rgb(238,238,238); fill-opacity: 0.4"></path><path d="M126.60711062034727,1.565443993638058L126.60711062034727,4.372704772718829L125.79895153982419,2.5842969631579846z" style="fill:rgb(153,221,255); fill-opacity: 0.4"></path><path d="M172.43627919711872,45.186913356720964L187.01451508378133,26.808008409102637L187.01451508378133,-23.40430436408705z" style="fill:rgb(238,238,238); fill-opacity: 0.4"></path><path d="M126.60711062034727,4.372704772718829L125.79895153982419,5.3915577422387555L125.79895153982419,2.5842969631579846z" style="fill:rgb(153,221,255); fill-opacity: 0.4"></path><path d="M125.79895153982419,2.5842969631579846L125.79895153982419,5.391557742238756M125.79895153982419,5.391557742238756L159.17510473392997,8.684017989927188" style="fill:none;stroke:rgb(0,0,0);stroke-width:1;stroke-linecap:round"></path><path d="M132.00468942126892,17.595914937373095L121.20947990493492,31.205526630640037L121.20947990493492,-6.293239401351336z" style="fill:rgb(238,238,238); fill-opacity: 0.4"></path><path d="M159.9832638144531,7.665165020407262L126.60711062034727,4.372704772718829L126.60711062034727,1.565443993638058z" style="fill:rgb(153,221,255); fill-opacity: 0.4"></path><path d="M102.9071738150365,-6.072502994993626L102.9071738150365,24.768410348146578M125.79895153982419,2.5842969631579846L159.17510473392997,5.8767572108464154" style="fill:none;stroke:rgb(0,0,0);stroke-width:1;stroke-linecap:round"></path><path d="M125.79895153982419,5.3915577422387555L126.60711062034727,4.372704772718829L159.9832638144531,7.665165020407262z" style="fill:rgb(153,221,255); fill-opacity: 0.4"></path><path d="M154.58563309904073,34.49798687832847L121.20947990493492,31.205526630640037L165.38084261537472,20.888375185061523zM76.2062519944871,22.13444222247532L102.90717381503649,24.768410348146574L102.90717381503649,-6.072502994993628z" style="fill:rgb(238,238,238); fill-opacity: 0.4"></path><path d="M125.79895153982419,2.5842969631579846L159.17510473393,5.876757210846417L126.60711062034727,1.565443993638058zM125.79895153982419,2.5842969631579846L125.79895153982419,5.3915577422387555L159.17510473393,5.876757210846417z" style="fill:rgb(153,221,255); fill-opacity: 0.4"></path><path d="M154.58563309904073,-3.0007791536629034L165.38084261537472,-16.610390846929853L132.00468942126892,-19.90285109461828z" style="fill:rgb(238,238,238); fill-opacity: 0.4"></path><path d="M159.9832638144531,4.857904241326491L159.9832638144531,7.665165020407262L126.60711062034727,1.565443993638058z" style="fill:rgb(153,221,255); fill-opacity: 0.4"></path><path d="M76.2062519944871,-8.706471120664881L76.2062519944871,22.13444222247532L102.90717381503649,-6.072502994993628z" style="fill:rgb(238,238,238); fill-opacity: 0.4"></path><path d="M159.17510473393,8.68401798992719L125.79895153982419,5.3915577422387555L159.9832638144531,7.665165020407262zM159.17510473393,5.876757210846417L159.9832638144531,4.857904241326491L126.60711062034727,1.565443993638058z" style="fill:rgb(153,221,255); fill-opacity: 0.4"></path><path d="M76.2062519944871,-8.706471120664881L102.9071738150365,-6.072502994993626" style="fill:none;stroke:rgb(0,0,0);stroke-width:1;stroke-linecap:round"></path><path d="M186.05148289898582,-23.49930468264514L186.05148289898582,26.713008090544548L171.47324701232324,-5.1203997350268216z" style="fill:rgb(238,238,238); fill-opacity: 0.4"></path><path d="M159.9832614170896,4.8579041720463705L159.9832614170896,7.665164839576621M159.9832614170896,7.665164839576621L159.1751023269133,8.684017821266437M159.9832614170896,7.665164839576621L178.69823077307515,7.909527498349831M159.98326381445307,4.85790424132649L159.98326381445307,7.665165020407262M159.98326381445307,7.665165020407262L159.17510473392997,8.684017989927188" style="fill:none;stroke:rgb(0,0,0);stroke-width:1;stroke-linecap:round"></path><path d="M125.79895153982419,5.3915577422387555L159.17510473393,8.68401798992719L159.17510473393,5.876757210846417z" style="fill:rgb(153,221,255); fill-opacity: 0.4"></path><path d="M159.9832614170896,4.8579041720463705L159.1751023269133,5.876757153736186M159.9832614170896,4.8579041720463705L178.69823077307515,7.909527498349831M159.98326381445307,4.85790424132649L159.17510473392997,5.8767572108464154" style="fill:none;stroke:rgb(0,0,0);stroke-width:1;stroke-linecap:round"></path><path d="M159.98326330938744,4.857904191503238L159.98326330938744,7.665164970584009L159.17510422886437,8.684017940103933z" style="fill:rgb(255,187,187); fill-opacity: 0.4"></path><path d="M159.17510473393,8.68401798992719L159.9832638144531,7.665165020407262L159.9832638144531,4.857904241326491z" style="fill:rgb(153,221,255); fill-opacity: 0.4"></path><path d="M121.20947990493492,-6.293239401351335L121.20947990493492,31.20552663064004M121.20947990493492,31.20552663064004L154.5856330990407,34.49798687832847" style="fill:none;stroke:rgb(0,0,0);stroke-width:1;stroke-linecap:round"></path><path d="M159.98326330938744,4.857904191503238L159.17510422886437,8.684017940103933L159.17510422886437,5.876757161023164z" style="fill:rgb(255,187,187); fill-opacity: 0.4"></path><path d="M159.17510473393,5.876757210846417L159.17510473393,8.68401798992719L159.9832638144531,4.857904241326491z" style="fill:rgb(153,221,255); fill-opacity: 0.4"></path><path d="M159.1751023269133,8.684017821266437L159.1751023269133,5.876757153736186M159.1751023269133,8.684017821266437L178.69823077307515,7.909527498349831M159.17510473392997,5.8767572108464154L159.17510473392997,8.684017989927188" style="fill:none;stroke:rgb(0,0,0);stroke-width:1;stroke-linecap:round"></path><path d="M159.98326330938744,7.665164970584009L159.98326330938744,4.857904191503238L178.69823263894935,7.90952767770393z" style="fill:rgb(255,187,187); fill-opacity: 0.4"></path><path d="M172.43627919711872,45.186913356720964L171.47324701232324,45.091913038162865L187.01451508378133,26.808008409102637z" style="fill:rgb(238,238,238); fill-opacity: 0.4"></path><path d="M159.17510422886437,8.684017940103933L159.98326330938744,7.665164970584009L178.69823263894935,7.90952767770393z" style="fill:rgb(255,187,187); fill-opacity: 0.4"></path><path d="M159.1751023269133,5.876757153736186L178.69823077307515,7.909527498349831" style="fill:none;stroke:rgb(0,0,0);stroke-width:1;stroke-linecap:round"></path><path d="M159.98326330938744,4.857904191503238L159.17510422886437,5.876757161023164L178.69823263894935,7.90952767770393zM159.17510422886437,5.876757161023164L159.17510422886437,8.684017940103933L178.69823263894935,7.90952767770393z" style="fill:rgb(255,187,187); fill-opacity: 0.4"></path><path d="M172.43627919711872,-5.025399416468728L187.01451508378133,-23.40430436408705L186.05148289898582,-23.49930468264514zM121.20947990493492,-6.293239401351336L154.58563309904073,-3.0007791536629034L132.00468942126892,-19.90285109461828zM154.58563309904073,-3.0007791536629034L154.58563309904073,34.49798687832847L165.38084261537472,-16.610390846929853zM186.05148289898582,26.713008090544548L171.47324701232324,45.091913038162865L171.47324701232324,-5.1203997350268216z" style="fill:rgb(238,238,238); fill-opacity: 0.4"></path><path d="M154.5856330990407,-3.000779153662905L154.5856330990407,34.49798687832847" style="fill:none;stroke:rgb(0,0,0);stroke-width:1;stroke-linecap:round"></path><path d="M121.20947990493492,31.205526630640037L154.58563309904073,34.49798687832847L154.58563309904073,-3.0007791536629034zM121.20947990493492,-6.293239401351336L121.20947990493492,31.205526630640037L154.58563309904073,-3.0007791536629034z" style="fill:rgb(238,238,238); fill-opacity: 0.4"></path><path d="M121.20947990493492,-6.293239401351335L154.5856330990407,-3.000779153662905" style="fill:none;stroke:rgb(0,0,0);stroke-width:1;stroke-linecap:round"></path><path d="M172.43627919711872,-5.025399416468728L172.43627919711872,45.186913356720964L187.01451508378133,-23.40430436408705z" style="fill:rgb(238,238,238); fill-opacity: 0.4"></path><path d="M171.47324701232324,-5.1203997350268216L171.47324701232324,45.091913038162865M171.47324701232324,45.091913038162865L172.43627919711872,45.186913356720964M172.43627919711872,-5.025399416468731L172.43627919711872,45.186913356720964" style="fill:none;stroke:rgb(0,0,0);stroke-width:1;stroke-linecap:round"></path><path d="M171.47324701232324,-5.1203997350268216L172.43627919711872,-5.025399416468728L186.05148289898582,-23.49930468264514zM171.47324701232324,45.091913038162865L172.43627919711872,45.186913356720964L172.43627919711872,-5.025399416468728zM171.47324701232324,-5.1203997350268216L171.47324701232324,45.091913038162865L172.43627919711872,-5.025399416468728z" style="fill:rgb(238,238,238); fill-opacity: 0.4"></path><path d="M171.47324701232324,-5.1203997350268216L172.43627919711872,-5.025399416468731" style="fill:none;stroke:rgb(0,0,0);stroke-width:1;stroke-linecap:round"></path></svg>